M48
INCH
T01C0.0354
T02C0.038
T03C0.0394
T04C0.125
%
T01
X+007690Y+074940
X+007690Y+073940
X+007690Y+072940
X+007690Y+071940
X+010690Y+071940
X+010690Y+072940
X+010690Y+073940
X+010690Y+074940
X+012440Y+076940
X+007940Y+078690
X+005940Y+078690
X+005440Y+074440
X+005190Y+069940
X+005440Y+068440
X+005440Y+067440
X+005440Y+066440
X+006690Y+066440
X+006690Y+067440
X+006690Y+068440
X+007940Y+067690
X+007940Y+066690
X+007940Y+065690
X+007940Y+064690
X+009940Y+063190
X+010940Y+063190
X+010940Y+064690
X+010940Y+065690
X+010940Y+066690
X+010940Y+067690
X+004940Y+063190
X+005440Y+059690
X+006690Y+059190
X+006690Y+058190
X+006690Y+057190
X+006690Y+056190
X+009690Y+056190
X+009690Y+057190
X+009690Y+058190
X+009690Y+059190
X+011190Y+055940
X+009690Y+053190
X+007940Y+053190
X+005940Y+053190
X+006940Y+050190
X+007940Y+049190
X+007940Y+048190
X+007940Y+047190
X+007940Y+046190
X+007690Y+044690
X+008690Y+044690
X+010940Y+046190
X+010940Y+047190
X+010940Y+048190
X+010940Y+049190
X+005440Y+048940
X+005440Y+049940
X+005440Y+047940
X+005940Y+039690
X+007940Y+039690
X+007690Y+035940
X+007690Y+034940
X+007690Y+033940
X+007690Y+032940
X+010690Y+032940
X+010690Y+033940
X+010690Y+034940
X+010690Y+035940
X+012440Y+037940
X+005440Y+035440
X+005190Y+030940
X+005440Y+029440
X+005440Y+028440
X+005440Y+027440
X+006690Y+027440
X+006690Y+028440
X+006690Y+029440
X+007940Y+028690
X+007940Y+027690
X+007940Y+026690
X+007940Y+025690
X+009940Y+024190
X+010940Y+024190
X+010940Y+025690
X+010940Y+026690
X+010940Y+027690
X+010940Y+028690
X+004940Y+024190
X+005440Y+020690
X+006690Y+020190
X+006690Y+019190
X+006690Y+018190
X+006690Y+017190
X+009690Y+017190
X+009690Y+018190
X+009690Y+019190
X+009690Y+020190
X+011190Y+016940
X+009690Y+014190
X+007940Y+014190
X+005940Y+014190
X+006940Y+011190
X+007940Y+010190
X+007940Y+009190
X+007940Y+008190
X+007940Y+007190
X+007690Y+005690
X+008690Y+005690
X+010940Y+007190
X+010940Y+008190
X+010940Y+009190
X+010940Y+010190
X+005440Y+009940
X+005440Y+010940
X+005440Y+008940
T02
X+005940Y+076940
X+006440Y+073940
X+006440Y+069940
X+012190Y+067190
X+012190Y+063190
X+005440Y+058690
X+005440Y+054690
X+005940Y+051190
X+009940Y+051190
X+011940Y+049940
X+011940Y+053940
X+009940Y+037940
X+005940Y+037940
X+006440Y+034940
X+006440Y+030940
X+012190Y+028190
X+012190Y+024190
X+005440Y+019690
X+005440Y+015690
X+005940Y+012190
X+009940Y+012190
X+011940Y+010940
X+011940Y+014940
X+009940Y+076940
T03
X+011940Y+073940
X+011940Y+074940
X+011690Y+070190
X+011690Y+069190
X+009690Y+070440
X+008690Y+070440
X+007940Y+063190
X+006940Y+063190
X+011190Y+057940
X+012190Y+057940
X+008690Y+054690
X+007690Y+054690
X+012440Y+048440
X+012440Y+047440
X+011690Y+044690
X+010690Y+044690
X+011940Y+035940
X+011940Y+034940
X+011690Y+031190
X+011690Y+030190
X+009690Y+031440
X+008690Y+031440
X+007940Y+024190
X+006940Y+024190
X+011190Y+018940
X+012190Y+018940
X+008690Y+015690
X+007690Y+015690
X+012440Y+009440
X+012440Y+008440
X+011690Y+005690
X+010690Y+005690
T04
X+011440Y+078440
X+005940Y+064690
X+011440Y+059940
X+005940Y+046190
X+011440Y+039440
X+005940Y+025690
X+011440Y+020940
X+005940Y+007190
T00
M30
