G04 DipTrace 3.0.0.2*
G04 Top.gbr*
%MOIN*%
G04 #@! TF.FileFunction,Copper,L1,Top*
G04 #@! TF.Part,Single*
G04 #@! TA.AperFunction,Conductor*
%ADD13C,0.017*%
%ADD14C,0.012992*%
G04 #@! TA.AperFunction,ComponentPad*
%ADD15R,0.059055X0.059055*%
%ADD16C,0.059055*%
%ADD17C,0.062992*%
%ADD18R,0.062992X0.062992*%
%ADD19C,0.06*%
%ADD20C,0.06*%
%ADD21C,0.059055*%
%FSLAX26Y26*%
G04*
G70*
G90*
G75*
G01*
G04 Top*
%LPD*%
X994000Y7694000D2*
D13*
X1244000D1*
X644000Y6994000D2*
D14*
X519000D1*
X644000Y7394000D2*
X769000D1*
X1094000Y6669000D2*
D13*
X1044984Y6718016D1*
X744000D1*
X718016Y6744000D1*
X669000D1*
X1194000Y7394000D2*
X1069000D1*
X669000Y6744000D2*
X544000D1*
X794000Y6469000D2*
X674512Y6588488D1*
X495972D1*
X469988Y6614472D1*
Y6769988D1*
X544000Y6844000D1*
X669000D1*
X794000Y6769000D2*
X969000Y6944000D1*
Y7044000D1*
X494000Y6319000D2*
X601252D1*
X694000D1*
X544000Y6644000D2*
X593016D1*
X669000D1*
X969000Y7044000D2*
X1040535D1*
X1065535Y7019000D1*
X1169000D1*
X1219000Y6319000D2*
D14*
X1094000D1*
X1069000Y4469000D2*
D13*
X919000Y4619000D1*
X794000D1*
X674512Y4738488D1*
X500500D1*
X474516Y4764472D1*
Y4924516D1*
X544000Y4994000D1*
X594000Y5119000D2*
D14*
X768016D1*
X794000Y5093016D1*
Y4919000D1*
X1244000Y4844000D2*
D13*
X1169516D1*
X1144516Y4819000D1*
X1094000D1*
X1119000Y5794000D2*
X1044000D1*
X1018016Y5819984D1*
Y5869984D1*
X969000Y5919000D1*
X1094000Y4819000D2*
X1044984Y4868016D1*
X684335D1*
X658350Y4894000D1*
X544000D1*
X969000Y5319000D2*
X894984D1*
X869000Y5344984D1*
Y5469000D1*
X1244000Y4744000D2*
X1155024D1*
X1131008Y4768016D1*
X731992D1*
X706008Y4794000D1*
X544000D1*
X869000Y5469000D2*
X1193016D1*
X1219000Y5494984D1*
Y5794000D1*
X994000Y3794000D2*
X1244000D1*
X644000Y3094000D2*
D14*
X519000D1*
X644000Y3494000D2*
X769000D1*
X1094000Y2769000D2*
D13*
X1044984Y2818016D1*
X744000D1*
X718016Y2844000D1*
X669000D1*
X1194000Y3494000D2*
X1069000D1*
X669000Y2844000D2*
X544000D1*
X794000Y2569000D2*
X674512Y2688488D1*
X495972D1*
X469988Y2714472D1*
Y2869988D1*
X544000Y2944000D1*
X669000D1*
X794000Y2869000D2*
X969000Y3044000D1*
Y3144000D1*
X494000Y2419000D2*
X601252D1*
X694000D1*
X544000Y2744000D2*
X593016D1*
X669000D1*
X969000Y3144000D2*
X1040535D1*
X1065535Y3119000D1*
X1169000D1*
X1219000Y2419000D2*
D14*
X1094000D1*
X1069000Y569000D2*
D13*
X919000Y719000D1*
X794000D1*
X674512Y838488D1*
X500500D1*
X474516Y864472D1*
Y1024516D1*
X544000Y1094000D1*
X594000Y1219000D2*
D14*
X768016D1*
X794000Y1193016D1*
Y1019000D1*
X1244000Y944000D2*
D13*
X1169516D1*
X1144516Y919000D1*
X1094000D1*
X1119000Y1894000D2*
X1044000D1*
X1018016Y1919984D1*
Y1969984D1*
X969000Y2019000D1*
X1094000Y919000D2*
X1044984Y968016D1*
X684335D1*
X658350Y994000D1*
X544000D1*
X969000Y1419000D2*
X894984D1*
X869000Y1444984D1*
Y1569000D1*
X1244000Y844000D2*
X1155024D1*
X1131008Y868016D1*
X731992D1*
X706008Y894000D1*
X544000D1*
X869000Y1569000D2*
X1193016D1*
X1219000Y1594984D1*
Y1894000D1*
D15*
X769000Y7494000D3*
D16*
Y7394000D3*
Y7294000D3*
Y7194000D3*
X1069000D3*
Y7294000D3*
Y7394000D3*
Y7494000D3*
D15*
X794000Y6769000D3*
D16*
Y6669000D3*
Y6569000D3*
Y6469000D3*
X1094000D3*
Y6569000D3*
Y6669000D3*
Y6769000D3*
D17*
X1194000Y7394000D3*
D18*
Y7494000D3*
D19*
X594000Y7694000D3*
D20*
X994000D3*
D17*
X969000Y7044000D3*
D18*
X869000D3*
D19*
X594000Y5119000D3*
D20*
X994000D3*
D19*
X644000Y7394000D3*
D20*
Y6994000D3*
D17*
X794000Y7869000D3*
D18*
X594000D3*
D21*
X1244000Y7694000D3*
X519000Y6994000D3*
X544000Y7444000D3*
D17*
X1169000Y6919000D3*
D18*
Y7019000D3*
D17*
X794000Y6319000D3*
D18*
X694000D3*
D19*
X1219000D3*
D20*
Y6719000D3*
D15*
X994000Y6319000D3*
D16*
X1094000D3*
D15*
X544000Y6644000D3*
D16*
Y6744000D3*
Y6844000D3*
D15*
X669000Y6644000D3*
D16*
Y6744000D3*
Y6844000D3*
D21*
X494000Y6319000D3*
D15*
X794000Y4919000D3*
D16*
Y4819000D3*
Y4719000D3*
Y4619000D3*
X1094000D3*
Y4719000D3*
Y4819000D3*
Y4919000D3*
D15*
X669000Y5919000D3*
D16*
Y5819000D3*
Y5719000D3*
Y5619000D3*
X969000D3*
Y5719000D3*
Y5819000D3*
Y5919000D3*
D17*
X1219000Y5794000D3*
D18*
X1119000D3*
D17*
X1169000Y4469000D3*
D18*
X1069000D3*
D17*
X869000Y5469000D3*
D18*
X769000D3*
D17*
X1244000Y4844000D3*
D18*
Y4744000D3*
D21*
X544000Y5969000D3*
X1119000Y5594000D3*
D15*
X769000Y4469000D3*
D16*
X869000D3*
D19*
X544000Y5469000D3*
D20*
Y5869000D3*
D19*
X1194000Y4994000D3*
D20*
Y5394000D3*
D17*
X794000Y5319000D3*
D18*
X594000D3*
D21*
X969000D3*
D15*
X544000Y4794000D3*
D16*
Y4894000D3*
Y4994000D3*
D21*
X694000Y5019000D3*
D15*
X769000Y3594000D3*
D16*
Y3494000D3*
Y3394000D3*
Y3294000D3*
X1069000D3*
Y3394000D3*
Y3494000D3*
Y3594000D3*
D15*
X794000Y2869000D3*
D16*
Y2769000D3*
Y2669000D3*
Y2569000D3*
X1094000D3*
Y2669000D3*
Y2769000D3*
Y2869000D3*
D17*
X1194000Y3494000D3*
D18*
Y3594000D3*
D19*
X594000Y3794000D3*
D20*
X994000D3*
D17*
X969000Y3144000D3*
D18*
X869000D3*
D19*
X594000Y1219000D3*
D20*
X994000D3*
D19*
X644000Y3494000D3*
D20*
Y3094000D3*
D17*
X794000Y3969000D3*
D18*
X594000D3*
D21*
X1244000Y3794000D3*
X519000Y3094000D3*
X544000Y3544000D3*
D17*
X1169000Y3019000D3*
D18*
Y3119000D3*
D17*
X794000Y2419000D3*
D18*
X694000D3*
D19*
X1219000D3*
D20*
Y2819000D3*
D15*
X994000Y2419000D3*
D16*
X1094000D3*
D15*
X544000Y2744000D3*
D16*
Y2844000D3*
Y2944000D3*
D15*
X669000Y2744000D3*
D16*
Y2844000D3*
Y2944000D3*
D21*
X494000Y2419000D3*
D15*
X794000Y1019000D3*
D16*
Y919000D3*
Y819000D3*
Y719000D3*
X1094000D3*
Y819000D3*
Y919000D3*
Y1019000D3*
D15*
X669000Y2019000D3*
D16*
Y1919000D3*
Y1819000D3*
Y1719000D3*
X969000D3*
Y1819000D3*
Y1919000D3*
Y2019000D3*
D17*
X1219000Y1894000D3*
D18*
X1119000D3*
D17*
X1169000Y569000D3*
D18*
X1069000D3*
D17*
X869000Y1569000D3*
D18*
X769000D3*
D17*
X1244000Y944000D3*
D18*
Y844000D3*
D21*
X544000Y2069000D3*
X1119000Y1694000D3*
D15*
X769000Y569000D3*
D16*
X869000D3*
D19*
X544000Y1569000D3*
D20*
Y1969000D3*
D19*
X1194000Y1094000D3*
D20*
Y1494000D3*
D17*
X794000Y1419000D3*
D18*
X594000D3*
D21*
X969000D3*
D15*
X544000Y894000D3*
D16*
Y994000D3*
Y1094000D3*
D21*
X694000Y1119000D3*
M02*
