G04 DipTrace 3.0.0.2*
G04 TopAssy.gbr*
%MOIN*%
G04 #@! TF.FileFunction,Drawing,Top*
G04 #@! TF.Part,Single*
%ADD43C,0.009264*%
%FSLAX26Y26*%
G04*
G70*
G90*
G75*
G01*
G04 TopAssy*
%LPD*%
X438281Y7566484D2*
D43*
X498569D1*
Y7600905D1*
X469851Y7619433D2*
Y7645299D1*
X466999Y7653854D1*
X464081Y7656773D1*
X458377Y7659624D1*
X449755D1*
X444051Y7656773D1*
X441133Y7653854D1*
X438281Y7645299D1*
Y7619433D1*
X498569Y7619432D1*
Y7724114D2*
X438281Y7701099D1*
X498569Y7678152D1*
X478473Y7686774D2*
Y7715492D1*
X458377Y7742641D2*
X498569Y7759885D1*
X458377Y7777063D1*
X449821Y7795590D2*
X446903Y7801360D1*
X438347Y7809982D1*
X498569D1*
X492799Y7831361D2*
X495717Y7828509D1*
X498569Y7831361D1*
X495717Y7834279D1*
X492799Y7831361D1*
X449821Y7852806D2*
X446903Y7858576D1*
X438347Y7867198D1*
X498569D1*
Y7931688D2*
X438281Y7908673D1*
X498569Y7885726D1*
X478473Y7894348D2*
Y7923066D1*
X413281Y4316484D2*
X473569D1*
Y4350905D1*
X444851Y4369433D2*
Y4395299D1*
X441999Y4403854D1*
X439081Y4406773D1*
X433377Y4409624D1*
X424755D1*
X419051Y4406773D1*
X416133Y4403854D1*
X413281Y4395299D1*
Y4369433D1*
X473569Y4369432D1*
Y4474114D2*
X413281Y4451099D1*
X473569Y4428152D1*
X453473Y4436774D2*
Y4465492D1*
X433377Y4492641D2*
X473569Y4509885D1*
X433377Y4527063D1*
X424821Y4545590D2*
X421903Y4551360D1*
X413347Y4559982D1*
X473569D1*
X467799Y4581361D2*
X470717Y4578509D1*
X473569Y4581361D1*
X470717Y4584279D1*
X467799Y4581361D1*
X424821Y4602806D2*
X421903Y4608576D1*
X413347Y4617198D1*
X473569D1*
X413281Y4635726D2*
X473569D1*
Y4661592D1*
X470651Y4670214D1*
X467799Y4673066D1*
X462095Y4675918D1*
X453473D1*
X447703Y4673066D1*
X444851Y4670214D1*
X441999Y4661592D1*
X439081Y4670214D1*
X436229Y4673066D1*
X430525Y4675918D1*
X424755D1*
X419051Y4673066D1*
X416133Y4670214D1*
X413281Y4661592D1*
Y4635726D1*
X441999D2*
Y4661592D1*
X438281Y7191484D2*
X498569D1*
Y7217350D1*
X495651Y7225972D1*
X492799Y7228824D1*
X487095Y7231676D1*
X478473D1*
X472703Y7228824D1*
X469851Y7225972D1*
X466999Y7217350D1*
X464081Y7225972D1*
X461229Y7228824D1*
X455525Y7231676D1*
X449755D1*
X444051Y7228824D1*
X441133Y7225972D1*
X438281Y7217350D1*
Y7191484D1*
X466999D2*
Y7217350D1*
X438281Y7250203D2*
X498569Y7264595D1*
X438281Y7278921D1*
X498569Y7293246D1*
X438281Y7307639D1*
X446903Y7366358D2*
X441133Y7360654D1*
X438281Y7352032D1*
Y7340558D1*
X441133Y7331936D1*
X446903Y7326166D1*
X452607D1*
X458377Y7329084D1*
X461229Y7331936D1*
X464081Y7337640D1*
X469851Y7354884D1*
X472703Y7360654D1*
X475621Y7363506D1*
X481325Y7366358D1*
X489947D1*
X495651Y7360654D1*
X498569Y7352032D1*
Y7340558D1*
X495651Y7331936D1*
X489947Y7326166D1*
X563281Y4316484D2*
X623569D1*
Y4342350D1*
X620651Y4350972D1*
X617799Y4353824D1*
X612095Y4356676D1*
X603473D1*
X597703Y4353824D1*
X594851Y4350972D1*
X591999Y4342350D1*
X589081Y4350972D1*
X586229Y4353824D1*
X580525Y4356676D1*
X574755D1*
X569051Y4353824D1*
X566133Y4350972D1*
X563281Y4342350D1*
Y4316484D1*
X591999D2*
Y4342350D1*
X563281Y4375203D2*
X623569Y4389595D1*
X563281Y4403921D1*
X623569Y4418246D1*
X563281Y4432639D1*
X571903Y4491358D2*
X566133Y4485654D1*
X563281Y4477032D1*
Y4465558D1*
X566133Y4456936D1*
X571903Y4451166D1*
X577607D1*
X583377Y4454084D1*
X586229Y4456936D1*
X589081Y4462640D1*
X594851Y4479884D1*
X597703Y4485654D1*
X600621Y4488506D1*
X606325Y4491358D1*
X614947D1*
X620651Y4485654D1*
X623569Y4477032D1*
Y4465558D1*
X620651Y4456936D1*
X614947Y4451166D1*
X438281Y3666484D2*
X498569D1*
Y3700905D1*
X469851Y3719433D2*
Y3745299D1*
X466999Y3753854D1*
X464081Y3756773D1*
X458377Y3759624D1*
X449755D1*
X444051Y3756773D1*
X441133Y3753854D1*
X438281Y3745299D1*
Y3719433D1*
X498569Y3719432D1*
Y3824114D2*
X438281Y3801099D1*
X498569Y3778152D1*
X478473Y3786774D2*
Y3815492D1*
X458377Y3842641D2*
X498569Y3859885D1*
X458377Y3877063D1*
X449821Y3895590D2*
X446903Y3901360D1*
X438347Y3909982D1*
X498569D1*
X492799Y3931361D2*
X495717Y3928509D1*
X498569Y3931361D1*
X495717Y3934279D1*
X492799Y3931361D1*
X449821Y3952806D2*
X446903Y3958576D1*
X438347Y3967198D1*
X498569D1*
Y4031688D2*
X438281Y4008673D1*
X498569Y3985726D1*
X478473Y3994348D2*
Y4023066D1*
X413281Y416484D2*
X473569D1*
Y450905D1*
X444851Y469433D2*
Y495299D1*
X441999Y503854D1*
X439081Y506773D1*
X433377Y509624D1*
X424755D1*
X419051Y506773D1*
X416133Y503854D1*
X413281Y495299D1*
Y469433D1*
X473569Y469432D1*
Y574114D2*
X413281Y551099D1*
X473569Y528152D1*
X453473Y536774D2*
Y565492D1*
X433377Y592641D2*
X473569Y609885D1*
X433377Y627063D1*
X424821Y645590D2*
X421903Y651360D1*
X413347Y659982D1*
X473569D1*
X467799Y681361D2*
X470717Y678509D1*
X473569Y681361D1*
X470717Y684279D1*
X467799Y681361D1*
X424821Y702806D2*
X421903Y708576D1*
X413347Y717198D1*
X473569D1*
X413281Y735726D2*
X473569D1*
Y761592D1*
X470651Y770214D1*
X467799Y773066D1*
X462095Y775918D1*
X453473D1*
X447703Y773066D1*
X444851Y770214D1*
X441999Y761592D1*
X439081Y770214D1*
X436229Y773066D1*
X430525Y775918D1*
X424755D1*
X419051Y773066D1*
X416133Y770214D1*
X413281Y761592D1*
Y735726D1*
X441999D2*
Y761592D1*
X438281Y3291484D2*
X498569D1*
Y3317350D1*
X495651Y3325972D1*
X492799Y3328824D1*
X487095Y3331676D1*
X478473D1*
X472703Y3328824D1*
X469851Y3325972D1*
X466999Y3317350D1*
X464081Y3325972D1*
X461229Y3328824D1*
X455525Y3331676D1*
X449755D1*
X444051Y3328824D1*
X441133Y3325972D1*
X438281Y3317350D1*
Y3291484D1*
X466999D2*
Y3317350D1*
X438281Y3350203D2*
X498569Y3364595D1*
X438281Y3378921D1*
X498569Y3393246D1*
X438281Y3407639D1*
X446903Y3466358D2*
X441133Y3460654D1*
X438281Y3452032D1*
Y3440558D1*
X441133Y3431936D1*
X446903Y3426166D1*
X452607D1*
X458377Y3429084D1*
X461229Y3431936D1*
X464081Y3437640D1*
X469851Y3454884D1*
X472703Y3460654D1*
X475621Y3463506D1*
X481325Y3466358D1*
X489947D1*
X495651Y3460654D1*
X498569Y3452032D1*
Y3440558D1*
X495651Y3431936D1*
X489947Y3426166D1*
X563281Y416484D2*
X623569D1*
Y442350D1*
X620651Y450972D1*
X617799Y453824D1*
X612095Y456676D1*
X603473D1*
X597703Y453824D1*
X594851Y450972D1*
X591999Y442350D1*
X589081Y450972D1*
X586229Y453824D1*
X580525Y456676D1*
X574755D1*
X569051Y453824D1*
X566133Y450972D1*
X563281Y442350D1*
Y416484D1*
X591999D2*
Y442350D1*
X563281Y475203D2*
X623569Y489595D1*
X563281Y503921D1*
X623569Y518246D1*
X563281Y532639D1*
X571903Y591358D2*
X566133Y585654D1*
X563281Y577032D1*
Y565558D1*
X566133Y556936D1*
X571903Y551166D1*
X577607D1*
X583377Y554084D1*
X586229Y556936D1*
X589081Y562640D1*
X594851Y579884D1*
X597703Y585654D1*
X600621Y588506D1*
X606325Y591358D1*
X614947D1*
X620651Y585654D1*
X623569Y577032D1*
Y565558D1*
X620651Y556936D1*
X614947Y551166D1*
M02*
