G04 DipTrace 3.0.0.2*
G04 TopMask.gbr*
%MOIN*%
G04 #@! TF.FileFunction,Soldermask,Top*
G04 #@! TF.Part,Single*
%ADD22C,0.125*%
%ADD28C,0.067055*%
%ADD30C,0.068*%
%ADD32C,0.068*%
%ADD34R,0.070992X0.070992*%
%ADD36C,0.070992*%
%ADD38C,0.067055*%
%ADD40R,0.067055X0.067055*%
%FSLAX26Y26*%
G04*
G70*
G90*
G75*
G01*
G04 TopMask*
%LPD*%
D40*
X769000Y7494000D3*
D38*
Y7394000D3*
Y7294000D3*
Y7194000D3*
X1069000D3*
Y7294000D3*
Y7394000D3*
Y7494000D3*
D40*
X794000Y6769000D3*
D38*
Y6669000D3*
Y6569000D3*
Y6469000D3*
X1094000D3*
Y6569000D3*
Y6669000D3*
Y6769000D3*
D36*
X1194000Y7394000D3*
D34*
Y7494000D3*
D32*
X594000Y7694000D3*
D30*
X994000D3*
D36*
X969000Y7044000D3*
D34*
X869000D3*
D32*
X594000Y5119000D3*
D30*
X994000D3*
D32*
X644000Y7394000D3*
D30*
Y6994000D3*
D36*
X794000Y7869000D3*
D34*
X594000D3*
D28*
X1244000Y7694000D3*
X519000Y6994000D3*
X544000Y7444000D3*
D36*
X1169000Y6919000D3*
D34*
Y7019000D3*
D36*
X794000Y6319000D3*
D34*
X694000D3*
D32*
X1219000D3*
D30*
Y6719000D3*
D40*
X994000Y6319000D3*
D38*
X1094000D3*
D40*
X544000Y6644000D3*
D38*
Y6744000D3*
Y6844000D3*
D40*
X669000Y6644000D3*
D38*
Y6744000D3*
Y6844000D3*
D22*
X1144000Y7844000D3*
X594000Y6469000D3*
D28*
X494000Y6319000D3*
D40*
X794000Y4919000D3*
D38*
Y4819000D3*
Y4719000D3*
Y4619000D3*
X1094000D3*
Y4719000D3*
Y4819000D3*
Y4919000D3*
D40*
X669000Y5919000D3*
D38*
Y5819000D3*
Y5719000D3*
Y5619000D3*
X969000D3*
Y5719000D3*
Y5819000D3*
Y5919000D3*
D36*
X1219000Y5794000D3*
D34*
X1119000D3*
D36*
X1169000Y4469000D3*
D34*
X1069000D3*
D36*
X869000Y5469000D3*
D34*
X769000D3*
D36*
X1244000Y4844000D3*
D34*
Y4744000D3*
D28*
X544000Y5969000D3*
X1119000Y5594000D3*
D40*
X769000Y4469000D3*
D38*
X869000D3*
D32*
X544000Y5469000D3*
D30*
Y5869000D3*
D32*
X1194000Y4994000D3*
D30*
Y5394000D3*
D36*
X794000Y5319000D3*
D34*
X594000D3*
D28*
X969000D3*
D40*
X544000Y4794000D3*
D38*
Y4894000D3*
Y4994000D3*
D22*
X1144000Y5994000D3*
X594000Y4619000D3*
D28*
X694000Y5019000D3*
D40*
X769000Y3594000D3*
D38*
Y3494000D3*
Y3394000D3*
Y3294000D3*
X1069000D3*
Y3394000D3*
Y3494000D3*
Y3594000D3*
D40*
X794000Y2869000D3*
D38*
Y2769000D3*
Y2669000D3*
Y2569000D3*
X1094000D3*
Y2669000D3*
Y2769000D3*
Y2869000D3*
D36*
X1194000Y3494000D3*
D34*
Y3594000D3*
D32*
X594000Y3794000D3*
D30*
X994000D3*
D36*
X969000Y3144000D3*
D34*
X869000D3*
D32*
X594000Y1219000D3*
D30*
X994000D3*
D32*
X644000Y3494000D3*
D30*
Y3094000D3*
D36*
X794000Y3969000D3*
D34*
X594000D3*
D28*
X1244000Y3794000D3*
X519000Y3094000D3*
X544000Y3544000D3*
D36*
X1169000Y3019000D3*
D34*
Y3119000D3*
D36*
X794000Y2419000D3*
D34*
X694000D3*
D32*
X1219000D3*
D30*
Y2819000D3*
D40*
X994000Y2419000D3*
D38*
X1094000D3*
D40*
X544000Y2744000D3*
D38*
Y2844000D3*
Y2944000D3*
D40*
X669000Y2744000D3*
D38*
Y2844000D3*
Y2944000D3*
D22*
X1144000Y3944000D3*
X594000Y2569000D3*
D28*
X494000Y2419000D3*
D40*
X794000Y1019000D3*
D38*
Y919000D3*
Y819000D3*
Y719000D3*
X1094000D3*
Y819000D3*
Y919000D3*
Y1019000D3*
D40*
X669000Y2019000D3*
D38*
Y1919000D3*
Y1819000D3*
Y1719000D3*
X969000D3*
Y1819000D3*
Y1919000D3*
Y2019000D3*
D36*
X1219000Y1894000D3*
D34*
X1119000D3*
D36*
X1169000Y569000D3*
D34*
X1069000D3*
D36*
X869000Y1569000D3*
D34*
X769000D3*
D36*
X1244000Y944000D3*
D34*
Y844000D3*
D28*
X544000Y2069000D3*
X1119000Y1694000D3*
D40*
X769000Y569000D3*
D38*
X869000D3*
D32*
X544000Y1569000D3*
D30*
Y1969000D3*
D32*
X1194000Y1094000D3*
D30*
Y1494000D3*
D36*
X794000Y1419000D3*
D34*
X594000D3*
D28*
X969000D3*
D40*
X544000Y894000D3*
D38*
Y994000D3*
Y1094000D3*
D22*
X1144000Y2094000D3*
X594000Y719000D3*
D28*
X694000Y1119000D3*
M02*
