G04 DipTrace 3.0.0.2*
G04 TopSilk.gbr*
%MOIN*%
G04 #@! TF.FileFunction,Legend,Top*
G04 #@! TF.Part,Single*
%ADD10C,0.009843*%
%ADD42C,0.00772*%
%FSLAX26Y26*%
G04*
G70*
G90*
G75*
G01*
G04 TopSilk*
%LPD*%
X1021367Y7540850D2*
D10*
Y7147150D1*
X816633D2*
X1021367D1*
X816633Y7540850D2*
Y7147150D1*
Y7540850D2*
X895374D1*
X1021367D2*
X942626D1*
X895374D2*
G03X942626Y7540850I23626J4D01*
G01*
X1046367Y6815850D2*
Y6422150D1*
X841633D2*
X1046367D1*
X841633Y6815850D2*
Y6422150D1*
Y6815850D2*
X920374D1*
X1046367D2*
X967626D1*
X920374D2*
G03X967626Y6815850I23626J4D01*
G01*
X1134000Y7513940D2*
Y7374060D1*
X1254000Y7513940D2*
Y7374060D1*
X1134000D2*
G03X1254000Y7374060I60000J-60D01*
G01*
Y7513940D2*
G03X1134000Y7513940I-60000J60D01*
G01*
X893820Y7644000D2*
X694180D1*
Y7744000D2*
Y7644000D1*
X893820Y7744000D2*
X694180D1*
X893820D2*
Y7644000D1*
X849060Y6984000D2*
X988940D1*
X849060Y7104000D2*
X988940D1*
Y6984000D2*
G03X988940Y7104000I60J60000D01*
G01*
X849060D2*
G03X849060Y6984000I-60J-60000D01*
G01*
X893820Y5069000D2*
X694180D1*
Y5169000D2*
Y5069000D1*
X893820Y5169000D2*
X694180D1*
X893820D2*
Y5069000D1*
X594000Y7094180D2*
Y7293820D1*
X694000D2*
X594000D1*
X694000Y7094180D2*
Y7293820D1*
Y7094180D2*
X594000D1*
X574120Y7929000D2*
X813880D1*
X574120Y7809000D2*
X813880D1*
G03X813880Y7929000I120J60000D01*
G01*
X574120D2*
G03X574120Y7809000I-120J-60000D01*
G01*
X1109000Y7038940D2*
Y6899060D1*
X1229000Y7038940D2*
Y6899060D1*
X1109000D2*
G03X1229000Y6899060I60000J-60D01*
G01*
Y7038940D2*
G03X1109000Y7038940I-60000J60D01*
G01*
X674060Y6259000D2*
X813940D1*
X674060Y6379000D2*
X813940D1*
Y6259000D2*
G03X813940Y6379000I60J60000D01*
G01*
X674060D2*
G03X674060Y6259000I-60J-60000D01*
G01*
X1269000Y6618820D2*
Y6419180D1*
X1169000D2*
X1269000D1*
X1169000Y6618820D2*
Y6419180D1*
Y6618820D2*
X1269000D1*
X1144000Y6269000D2*
Y6369000D1*
X944000Y6269000D2*
X1144000D1*
X944000D2*
Y6369000D1*
X1144000D1*
X594000Y6594000D2*
X494000D1*
Y6894000D1*
X594000D2*
X494000D1*
X594000Y6594000D2*
Y6894000D1*
X719000Y6594000D2*
X619000D1*
Y6894000D1*
X719000D2*
X619000D1*
X719000Y6594000D2*
Y6894000D1*
X1046367Y4965850D2*
Y4572150D1*
X841633D2*
X1046367D1*
X841633Y4965850D2*
Y4572150D1*
Y4965850D2*
X920374D1*
X1046367D2*
X967626D1*
X920374D2*
G03X967626Y4965850I23626J4D01*
G01*
X921367Y5965850D2*
Y5572150D1*
X716633D2*
X921367D1*
X716633Y5965850D2*
Y5572150D1*
Y5965850D2*
X795374D1*
X921367D2*
X842626D1*
X795374D2*
G03X842626Y5965850I23626J4D01*
G01*
X1099060Y5734000D2*
X1238940D1*
X1099060Y5854000D2*
X1238940D1*
Y5734000D2*
G03X1238940Y5854000I60J60000D01*
G01*
X1099060D2*
G03X1099060Y5734000I-60J-60000D01*
G01*
X1049060Y4409000D2*
X1188940D1*
X1049060Y4529000D2*
X1188940D1*
Y4409000D2*
G03X1188940Y4529000I60J60000D01*
G01*
X1049060D2*
G03X1049060Y4409000I-60J-60000D01*
G01*
X749060Y5409000D2*
X888940D1*
X749060Y5529000D2*
X888940D1*
Y5409000D2*
G03X888940Y5529000I60J60000D01*
G01*
X749060D2*
G03X749060Y5409000I-60J-60000D01*
G01*
X1304000Y4724060D2*
Y4863940D1*
X1184000Y4724060D2*
Y4863940D1*
X1304000D2*
G03X1184000Y4863940I-60000J60D01*
G01*
Y4724060D2*
G03X1304000Y4724060I60000J-60D01*
G01*
X919000Y4419000D2*
Y4519000D1*
X719000Y4419000D2*
X919000D1*
X719000D2*
Y4519000D1*
X919000D1*
X594000Y5768820D2*
Y5569180D1*
X494000D2*
X594000D1*
X494000Y5768820D2*
Y5569180D1*
Y5768820D2*
X594000D1*
X1244000Y5293820D2*
Y5094180D1*
X1144000D2*
X1244000D1*
X1144000Y5293820D2*
Y5094180D1*
Y5293820D2*
X1244000D1*
X574120Y5379000D2*
X813880D1*
X574120Y5259000D2*
X813880D1*
G03X813880Y5379000I120J60000D01*
G01*
X574120D2*
G03X574120Y5259000I-120J-60000D01*
G01*
X594000Y4744000D2*
X494000D1*
Y5044000D1*
X594000D2*
X494000D1*
X594000Y4744000D2*
Y5044000D1*
X1021367Y3640850D2*
Y3247150D1*
X816633D2*
X1021367D1*
X816633Y3640850D2*
Y3247150D1*
Y3640850D2*
X895374D1*
X1021367D2*
X942626D1*
X895374D2*
G03X942626Y3640850I23626J4D01*
G01*
X1046367Y2915850D2*
Y2522150D1*
X841633D2*
X1046367D1*
X841633Y2915850D2*
Y2522150D1*
Y2915850D2*
X920374D1*
X1046367D2*
X967626D1*
X920374D2*
G03X967626Y2915850I23626J4D01*
G01*
X1134000Y3613940D2*
Y3474060D1*
X1254000Y3613940D2*
Y3474060D1*
X1134000D2*
G03X1254000Y3474060I60000J-60D01*
G01*
Y3613940D2*
G03X1134000Y3613940I-60000J60D01*
G01*
X893820Y3744000D2*
X694180D1*
Y3844000D2*
Y3744000D1*
X893820Y3844000D2*
X694180D1*
X893820D2*
Y3744000D1*
X849060Y3084000D2*
X988940D1*
X849060Y3204000D2*
X988940D1*
Y3084000D2*
G03X988940Y3204000I60J60000D01*
G01*
X849060D2*
G03X849060Y3084000I-60J-60000D01*
G01*
X893820Y1169000D2*
X694180D1*
Y1269000D2*
Y1169000D1*
X893820Y1269000D2*
X694180D1*
X893820D2*
Y1169000D1*
X594000Y3194180D2*
Y3393820D1*
X694000D2*
X594000D1*
X694000Y3194180D2*
Y3393820D1*
Y3194180D2*
X594000D1*
X574120Y4029000D2*
X813880D1*
X574120Y3909000D2*
X813880D1*
G03X813880Y4029000I120J60000D01*
G01*
X574120D2*
G03X574120Y3909000I-120J-60000D01*
G01*
X1109000Y3138940D2*
Y2999060D1*
X1229000Y3138940D2*
Y2999060D1*
X1109000D2*
G03X1229000Y2999060I60000J-60D01*
G01*
Y3138940D2*
G03X1109000Y3138940I-60000J60D01*
G01*
X674060Y2359000D2*
X813940D1*
X674060Y2479000D2*
X813940D1*
Y2359000D2*
G03X813940Y2479000I60J60000D01*
G01*
X674060D2*
G03X674060Y2359000I-60J-60000D01*
G01*
X1269000Y2718820D2*
Y2519180D1*
X1169000D2*
X1269000D1*
X1169000Y2718820D2*
Y2519180D1*
Y2718820D2*
X1269000D1*
X1144000Y2369000D2*
Y2469000D1*
X944000Y2369000D2*
X1144000D1*
X944000D2*
Y2469000D1*
X1144000D1*
X594000Y2694000D2*
X494000D1*
Y2994000D1*
X594000D2*
X494000D1*
X594000Y2694000D2*
Y2994000D1*
X719000Y2694000D2*
X619000D1*
Y2994000D1*
X719000D2*
X619000D1*
X719000Y2694000D2*
Y2994000D1*
X1046367Y1065850D2*
Y672150D1*
X841633D2*
X1046367D1*
X841633Y1065850D2*
Y672150D1*
Y1065850D2*
X920374D1*
X1046367D2*
X967626D1*
X920374D2*
G03X967626Y1065850I23626J4D01*
G01*
X921367Y2065850D2*
Y1672150D1*
X716633D2*
X921367D1*
X716633Y2065850D2*
Y1672150D1*
Y2065850D2*
X795374D1*
X921367D2*
X842626D1*
X795374D2*
G03X842626Y2065850I23626J4D01*
G01*
X1099060Y1834000D2*
X1238940D1*
X1099060Y1954000D2*
X1238940D1*
Y1834000D2*
G03X1238940Y1954000I60J60000D01*
G01*
X1099060D2*
G03X1099060Y1834000I-60J-60000D01*
G01*
X1049060Y509000D2*
X1188940D1*
X1049060Y629000D2*
X1188940D1*
Y509000D2*
G03X1188940Y629000I60J60000D01*
G01*
X1049060D2*
G03X1049060Y509000I-60J-60000D01*
G01*
X749060Y1509000D2*
X888940D1*
X749060Y1629000D2*
X888940D1*
Y1509000D2*
G03X888940Y1629000I60J60000D01*
G01*
X749060D2*
G03X749060Y1509000I-60J-60000D01*
G01*
X1304000Y824060D2*
Y963940D1*
X1184000Y824060D2*
Y963940D1*
X1304000D2*
G03X1184000Y963940I-60000J60D01*
G01*
Y824060D2*
G03X1304000Y824060I60000J-60D01*
G01*
X919000Y519000D2*
Y619000D1*
X719000Y519000D2*
X919000D1*
X719000D2*
Y619000D1*
X919000D1*
X594000Y1868820D2*
Y1669180D1*
X494000D2*
X594000D1*
X494000Y1868820D2*
Y1669180D1*
Y1868820D2*
X594000D1*
X1244000Y1393820D2*
Y1194180D1*
X1144000D2*
X1244000D1*
X1144000Y1393820D2*
Y1194180D1*
Y1393820D2*
X1244000D1*
X574120Y1479000D2*
X813880D1*
X574120Y1359000D2*
X813880D1*
G03X813880Y1479000I120J60000D01*
G01*
X574120D2*
G03X574120Y1359000I-120J-60000D01*
G01*
X594000Y844000D2*
X494000D1*
Y1144000D1*
X594000D2*
X494000D1*
X594000Y844000D2*
Y1144000D1*
X789539Y7614073D2*
D42*
X784730Y7611697D1*
X779977Y7606888D1*
X777545Y7602135D1*
X775169Y7594950D1*
Y7582957D1*
X777545Y7575827D1*
X779977Y7571019D1*
X784730Y7566265D1*
X789539Y7563833D1*
X799100D1*
X803854Y7566265D1*
X808662Y7571019D1*
X811039Y7575827D1*
X813415Y7582957D1*
Y7594950D1*
X811039Y7602135D1*
X808662Y7606888D1*
X803854Y7611697D1*
X799100Y7614073D1*
X789539D1*
X828854Y7587765D2*
X850410D1*
X857539Y7590142D1*
X859971Y7592574D1*
X862348Y7597327D1*
Y7604512D1*
X859971Y7609265D1*
X857539Y7611697D1*
X850410Y7614073D1*
X828854D1*
Y7563833D1*
X916089D2*
X896910Y7614073D1*
X877787Y7563833D1*
X884972Y7580580D2*
X908904D1*
X960213Y7606888D2*
X957836Y7611642D1*
X950651Y7614018D1*
X945898D1*
X938713Y7611642D1*
X933905Y7604457D1*
X931528Y7592518D1*
Y7580580D1*
X933905Y7571019D1*
X938713Y7566210D1*
X945898Y7563833D1*
X948275D1*
X955405Y7566210D1*
X960213Y7571019D1*
X962590Y7578204D1*
Y7580580D1*
X960213Y7587765D1*
X955405Y7592518D1*
X948275Y7594895D1*
X945898D1*
X938713Y7592518D1*
X933905Y7587765D1*
X931528Y7580580D1*
X992399Y7614018D2*
X985214Y7611642D1*
X980405Y7604457D1*
X978029Y7592518D1*
Y7585333D1*
X980405Y7573395D1*
X985214Y7566210D1*
X992399Y7563833D1*
X997152D1*
X1004337Y7566210D1*
X1009090Y7573395D1*
X1011522Y7585333D1*
Y7592518D1*
X1009090Y7604457D1*
X1004337Y7611642D1*
X997152Y7614018D1*
X992399D1*
X1009090Y7604457D2*
X980405Y7573395D1*
X1050893Y7563833D2*
Y7614018D1*
X1026961Y7580580D1*
X1062831D1*
X831230Y6889073D2*
Y6838833D1*
X880163Y6889073D2*
Y6838833D1*
X846669Y6889073D1*
Y6838833D1*
X933904D2*
X914725Y6889073D1*
X895602Y6838833D1*
X902787Y6855580D2*
X926719D1*
X949343Y6879457D2*
X954151Y6881888D1*
X961337Y6889018D1*
Y6838833D1*
X991146Y6889018D2*
X983961Y6886642D1*
X979152Y6879457D1*
X976776Y6867518D1*
Y6860333D1*
X979152Y6848395D1*
X983961Y6841210D1*
X991146Y6838833D1*
X995899D1*
X1003084Y6841210D1*
X1007837Y6848395D1*
X1010269Y6860333D1*
Y6867518D1*
X1007837Y6879457D1*
X1003084Y6886642D1*
X995899Y6889018D1*
X991146D1*
X1007837Y6879457D2*
X979152Y6848395D1*
X1054393Y6881888D2*
X1052017Y6886642D1*
X1044832Y6889018D1*
X1040078D1*
X1032893Y6886642D1*
X1028085Y6879457D1*
X1025708Y6867518D1*
Y6855580D1*
X1028085Y6846019D1*
X1032893Y6841210D1*
X1040078Y6838833D1*
X1042455D1*
X1049585Y6841210D1*
X1054393Y6846019D1*
X1056770Y6853204D1*
Y6855580D1*
X1054393Y6862765D1*
X1049585Y6867518D1*
X1042455Y6869895D1*
X1040078D1*
X1032893Y6867518D1*
X1028085Y6862765D1*
X1025708Y6855580D1*
X1271014Y7373632D2*
X1273391Y7366447D1*
X1280576Y7361638D1*
X1292514Y7359261D1*
X1299699D1*
X1311637Y7361638D1*
X1318822Y7366447D1*
X1321199Y7373632D1*
Y7378385D1*
X1318822Y7385570D1*
X1311637Y7390323D1*
X1299699Y7392755D1*
X1292514D1*
X1280576Y7390323D1*
X1273391Y7385570D1*
X1271014Y7378385D1*
Y7373632D1*
X1280576Y7390323D2*
X1311637Y7361638D1*
X1316390Y7410571D2*
X1318822Y7408194D1*
X1321199Y7410571D1*
X1318822Y7413002D1*
X1316390Y7410571D1*
X1280576Y7428442D2*
X1278144Y7433250D1*
X1271014Y7440435D1*
X1321199D1*
X1287705Y7455874D2*
X1311637D1*
X1318767Y7458251D1*
X1321199Y7463059D1*
Y7470244D1*
X1318767Y7474998D1*
X1311637Y7482183D1*
X1287705D2*
X1321199D1*
X1270959Y7528739D2*
Y7497622D1*
X1321199D1*
X1294890D2*
Y7516745D1*
X728376Y7805230D2*
Y7807606D1*
X730753Y7812415D1*
X733129Y7814791D1*
X737938Y7817168D1*
X747499D1*
X752252Y7814791D1*
X754629Y7812415D1*
X757061Y7807606D1*
Y7802853D1*
X754629Y7798045D1*
X749876Y7790915D1*
X725944Y7766983D1*
X759437D1*
X789247Y7817168D2*
X782062Y7814791D1*
X777253Y7807606D1*
X774877Y7795668D1*
Y7788483D1*
X777253Y7776545D1*
X782062Y7769360D1*
X789247Y7766983D1*
X794000D1*
X801185Y7769360D1*
X805938Y7776545D1*
X808370Y7788483D1*
Y7795668D1*
X805938Y7807606D1*
X801185Y7814791D1*
X794000Y7817168D1*
X789247D1*
X805938Y7807606D2*
X777253Y7776545D1*
X862056Y7766983D2*
Y7817223D1*
X842933Y7766983D1*
X823809Y7817223D1*
Y7766983D1*
X848631Y6966986D2*
X841446Y6964609D1*
X836638Y6957424D1*
X834261Y6945486D1*
Y6938301D1*
X836638Y6926363D1*
X841446Y6919178D1*
X848631Y6916801D1*
X853385D1*
X860570Y6919178D1*
X865323Y6926363D1*
X867755Y6938301D1*
Y6945486D1*
X865323Y6957424D1*
X860570Y6964609D1*
X853385Y6966986D1*
X848631D1*
X865323Y6957424D2*
X836638Y6926363D1*
X885571Y6921610D2*
X883194Y6919178D1*
X885571Y6916801D1*
X888002Y6919178D1*
X885571Y6921610D1*
X903442Y6957424D2*
X908250Y6959856D1*
X915435Y6966986D1*
Y6916801D1*
X930874Y6950295D2*
Y6926363D1*
X933251Y6919233D1*
X938059Y6916801D1*
X945244D1*
X949998Y6919233D1*
X957183Y6926363D1*
Y6950295D2*
Y6916801D1*
X1003739Y6967041D2*
X972622D1*
Y6916801D1*
Y6943110D2*
X991745D1*
X742663Y5232606D2*
X747472Y5235038D1*
X754657Y5242168D1*
Y5191983D1*
X784466Y5242168D2*
X777281Y5239791D1*
X772473Y5232606D1*
X770096Y5220668D1*
Y5213483D1*
X772473Y5201545D1*
X777281Y5194360D1*
X784466Y5191983D1*
X789219D1*
X796404Y5194360D1*
X801157Y5201545D1*
X803589Y5213483D1*
Y5220668D1*
X801157Y5232606D1*
X796404Y5239791D1*
X789219Y5242168D1*
X784466D1*
X801157Y5232606D2*
X772473Y5201545D1*
X819029Y5242223D2*
Y5191983D1*
X842960Y5225476D2*
X819029Y5201545D1*
X828590Y5211106D2*
X845337Y5191983D1*
X530394Y7118197D2*
X527962Y7123005D1*
X520832Y7130191D1*
X571017Y7130190D1*
X520832Y7160000D2*
X523209Y7152815D1*
X530394Y7148006D1*
X542332Y7145630D1*
X549517D1*
X561455Y7148006D1*
X568640Y7152815D1*
X571017Y7160000D1*
Y7164753D1*
X568640Y7171938D1*
X561455Y7176691D1*
X549517Y7179123D1*
X542332D1*
X530394Y7176691D1*
X523209Y7171938D1*
X520832Y7164753D1*
Y7160000D1*
X530394Y7176691D2*
X561455Y7148006D1*
X520832Y7208932D2*
X523209Y7201747D1*
X530394Y7196939D1*
X542332Y7194562D1*
X549517D1*
X561455Y7196939D1*
X568640Y7201747D1*
X571017Y7208932D1*
Y7213685D1*
X568640Y7220871D1*
X561455Y7225624D1*
X549517Y7228056D1*
X542332D1*
X530394Y7225624D1*
X523209Y7220871D1*
X520832Y7213686D1*
Y7208932D1*
X530394Y7225624D2*
X561455Y7196939D1*
X520777Y7243495D2*
X571017D1*
X537524Y7267427D2*
X561455Y7243495D1*
X551894Y7253056D2*
X571017Y7269803D1*
X902952Y7785017D2*
X900576D1*
X895767Y7787394D1*
X893391Y7789770D1*
X891014Y7794579D1*
Y7804140D1*
X893391Y7808894D1*
X895767Y7811270D1*
X900576Y7813702D1*
X905329D1*
X910137Y7811270D1*
X917267Y7806517D1*
X941199Y7782585D1*
Y7816079D1*
X907705Y7880119D2*
X957945D1*
X914890D2*
X910137Y7884927D1*
X907705Y7889680D1*
Y7896865D1*
X910137Y7901674D1*
X914890Y7906427D1*
X922075Y7908859D1*
X926884D1*
X934014Y7906427D1*
X938822Y7901674D1*
X941199Y7896865D1*
Y7889680D1*
X938822Y7884927D1*
X934014Y7880119D1*
X890959Y7955415D2*
Y7924298D1*
X941199D1*
X914890D2*
Y7943421D1*
X498126Y7096751D2*
Y7046511D1*
X513565Y7080004D2*
Y7046511D1*
Y7070442D2*
X520751Y7077627D1*
X525559Y7080004D1*
X532689D1*
X537497Y7077627D1*
X539874Y7070442D1*
Y7046511D1*
X505817Y7534812D2*
X503441Y7539566D1*
X498632Y7544374D1*
X493879Y7546751D1*
X484317D1*
X479509Y7544374D1*
X474756Y7539566D1*
X472324Y7534812D1*
X469947Y7527627D1*
Y7515634D1*
X472324Y7508504D1*
X474756Y7503696D1*
X479509Y7498942D1*
X484317Y7496511D1*
X493879D1*
X498632Y7498942D1*
X503441Y7503696D1*
X505817Y7508504D1*
X521257Y7530004D2*
Y7496511D1*
Y7520442D2*
X528442Y7527627D1*
X533250Y7530004D1*
X540380D1*
X545188Y7527627D1*
X547565Y7520442D1*
Y7496511D1*
Y7520442D2*
X554750Y7527627D1*
X559558Y7530004D1*
X566688D1*
X571497Y7527627D1*
X573928Y7520442D1*
Y7496511D1*
X618053Y7546751D2*
Y7496511D1*
Y7522819D2*
X613299Y7527627D1*
X608491Y7530004D1*
X601306D1*
X596553Y7527627D1*
X591744Y7522819D1*
X589368Y7515634D1*
Y7510881D1*
X591744Y7503696D1*
X596553Y7498942D1*
X601306Y7496511D1*
X608491D1*
X613299Y7498942D1*
X618053Y7503696D1*
X1246014Y6898632D2*
X1248391Y6891447D1*
X1255576Y6886638D1*
X1267514Y6884261D1*
X1274699D1*
X1286637Y6886638D1*
X1293822Y6891447D1*
X1296199Y6898632D1*
Y6903385D1*
X1293822Y6910570D1*
X1286637Y6915323D1*
X1274699Y6917755D1*
X1267514D1*
X1255576Y6915323D1*
X1248391Y6910570D1*
X1246014Y6903385D1*
Y6898632D1*
X1255576Y6915323D2*
X1286637Y6886638D1*
X1291390Y6935571D2*
X1293822Y6933194D1*
X1296199Y6935571D1*
X1293822Y6938002D1*
X1291390Y6935571D1*
X1255576Y6953442D2*
X1253144Y6958250D1*
X1246014Y6965435D1*
X1296199D1*
X1262705Y6980874D2*
X1286637D1*
X1293767Y6983251D1*
X1296199Y6988059D1*
Y6995244D1*
X1293767Y6999998D1*
X1286637Y7007183D1*
X1262705D2*
X1296199D1*
X1245959Y7053739D2*
Y7022622D1*
X1296199D1*
X1269890D2*
Y7041745D1*
X673631Y6241986D2*
X666446Y6239609D1*
X661638Y6232424D1*
X659261Y6220486D1*
Y6213301D1*
X661638Y6201363D1*
X666446Y6194178D1*
X673631Y6191801D1*
X678385D1*
X685570Y6194178D1*
X690323Y6201363D1*
X692755Y6213301D1*
Y6220486D1*
X690323Y6232424D1*
X685570Y6239609D1*
X678385Y6241986D1*
X673631D1*
X690323Y6232424D2*
X661638Y6201363D1*
X710571Y6196610D2*
X708194Y6194178D1*
X710571Y6191801D1*
X713002Y6194178D1*
X710571Y6196610D1*
X728442Y6232424D2*
X733250Y6234856D1*
X740435Y6241986D1*
Y6191801D1*
X755874Y6225295D2*
Y6201363D1*
X758251Y6194233D1*
X763059Y6191801D1*
X770244D1*
X774998Y6194233D1*
X782183Y6201363D1*
Y6225295D2*
Y6191801D1*
X828739Y6242041D2*
X797622D1*
Y6191801D1*
Y6218110D2*
X816745D1*
X1206472Y6822168D2*
X1182595D1*
X1180219Y6800668D1*
X1182595Y6803045D1*
X1189781Y6805476D1*
X1196910D1*
X1204095Y6803045D1*
X1208904Y6798291D1*
X1211280Y6791106D1*
Y6786353D1*
X1208904Y6779168D1*
X1204095Y6774360D1*
X1196910Y6771983D1*
X1189781D1*
X1182595Y6774360D1*
X1180219Y6776792D1*
X1177787Y6781545D1*
X1241090Y6822168D2*
X1233905Y6819791D1*
X1229096Y6812606D1*
X1226720Y6800668D1*
Y6793483D1*
X1229096Y6781545D1*
X1233905Y6774360D1*
X1241090Y6771983D1*
X1245843D1*
X1253028Y6774360D1*
X1257781Y6781545D1*
X1260213Y6793483D1*
Y6800668D1*
X1257781Y6812606D1*
X1253028Y6819791D1*
X1245843Y6822168D1*
X1241090D1*
X1257781Y6812606D2*
X1229096Y6781545D1*
X935938Y6226894D2*
X963572D1*
X993382Y6252041D2*
X988573Y6249665D1*
X983820Y6244856D1*
X981388Y6240103D1*
X979012Y6232918D1*
Y6220925D1*
X981388Y6213795D1*
X983820Y6208986D1*
X988573Y6204233D1*
X993382Y6201801D1*
X1002943D1*
X1007697Y6204233D1*
X1012505Y6208986D1*
X1014882Y6213795D1*
X1017258Y6220925D1*
Y6232918D1*
X1014882Y6240103D1*
X1012505Y6244856D1*
X1007697Y6249665D1*
X1002943Y6252041D1*
X993382D1*
X1032697Y6235295D2*
Y6211363D1*
X1035074Y6204233D1*
X1039882Y6201801D1*
X1047067D1*
X1051821Y6204233D1*
X1059006Y6211363D1*
Y6235295D2*
Y6201801D1*
X1081630Y6252041D2*
Y6211363D1*
X1084007Y6204233D1*
X1088815Y6201801D1*
X1093568D1*
X1074445Y6235295D2*
X1091192D1*
X1130507Y6248421D2*
Y6205366D1*
X1109007Y6226866D2*
X1152062D1*
X420832Y6565873D2*
X423209Y6558688D1*
X430394Y6553880D1*
X442332Y6551503D1*
X449517D1*
X461455Y6553880D1*
X468640Y6558688D1*
X471017Y6565873D1*
Y6570626D1*
X468640Y6577811D1*
X461455Y6582564D1*
X449517Y6584996D1*
X442332D1*
X430394Y6582565D1*
X423209Y6577811D1*
X420832Y6570626D1*
Y6565873D1*
X430394Y6582565D2*
X461455Y6553880D1*
X424397Y6670536D2*
X467452D1*
X445952Y6649037D2*
Y6692091D1*
X430394Y6707531D2*
X427962Y6712339D1*
X420832Y6719524D1*
X471017D1*
X420832Y6763648D2*
Y6739772D1*
X442332Y6737395D1*
X439955Y6739772D1*
X437524Y6746957D1*
Y6754087D1*
X439955Y6761272D1*
X444709Y6766080D1*
X451894Y6768457D1*
X456647D1*
X463832Y6766080D1*
X468640Y6761272D1*
X471017Y6754087D1*
Y6746957D1*
X468640Y6739772D1*
X466208Y6737395D1*
X461455Y6734963D1*
X445925Y6832497D2*
Y6860132D1*
X430394Y6875571D2*
X427962Y6880379D1*
X420832Y6887564D1*
X471017D1*
X420832Y6931689D2*
Y6907812D1*
X442332Y6905436D1*
X439955Y6907812D1*
X437524Y6914997D1*
Y6922127D1*
X439955Y6929312D1*
X444709Y6934120D1*
X451894Y6936497D1*
X456647D1*
X463832Y6934120D1*
X468640Y6929312D1*
X471017Y6922127D1*
Y6914997D1*
X468640Y6907812D1*
X466208Y6905436D1*
X461455Y6903004D1*
X468999Y6260576D2*
X466623Y6265329D1*
X461814Y6270137D1*
X457061Y6272514D1*
X447499D1*
X442691Y6270137D1*
X437938Y6265329D1*
X435506Y6260576D1*
X433129Y6253390D1*
Y6241397D1*
X435506Y6234267D1*
X437938Y6229459D1*
X442691Y6224706D1*
X447499Y6222274D1*
X457061D1*
X461814Y6224706D1*
X466623Y6229459D1*
X468999Y6234267D1*
Y6241397D1*
X457061D1*
X484438Y6255767D2*
Y6222274D1*
Y6246205D2*
X491623Y6253390D1*
X496432Y6255767D1*
X503562D1*
X508370Y6253390D1*
X510747Y6246205D1*
Y6222274D1*
X554871Y6272514D2*
Y6222274D1*
Y6248582D2*
X550118Y6253390D1*
X545309Y6255767D1*
X538124D1*
X533371Y6253390D1*
X528563Y6248582D1*
X526186Y6241397D1*
Y6236644D1*
X528563Y6229459D1*
X533371Y6224706D1*
X538124Y6222274D1*
X545309D1*
X550118Y6224706D1*
X554871Y6229459D1*
X862909Y4988833D2*
X843731Y5039073D1*
X824607Y4988833D1*
X831792Y5005580D2*
X855724D1*
X916595Y4988833D2*
Y5039073D1*
X897472Y4988833D1*
X878348Y5039073D1*
Y4988833D1*
X932034Y5012765D2*
X953589D1*
X960719Y5015142D1*
X963151Y5017574D1*
X965527Y5022327D1*
Y5029512D1*
X963151Y5034265D1*
X960719Y5036697D1*
X953589Y5039073D1*
X932034D1*
Y4988833D1*
X995337Y5039018D2*
X988152Y5036642D1*
X983343Y5029457D1*
X980967Y5017518D1*
Y5010333D1*
X983343Y4998395D1*
X988152Y4991210D1*
X995337Y4988833D1*
X1000090D1*
X1007275Y4991210D1*
X1012028Y4998395D1*
X1014460Y5010333D1*
Y5017518D1*
X1012028Y5029457D1*
X1007275Y5036642D1*
X1000090Y5039018D1*
X995337D1*
X1012028Y5029457D2*
X983343Y4998395D1*
X1034708Y5039018D2*
X1060961D1*
X1046646Y5019895D1*
X1053831D1*
X1058584Y5017518D1*
X1060961Y5015142D1*
X1063393Y5007957D1*
Y5003204D1*
X1060961Y4996019D1*
X1056208Y4991210D1*
X1049023Y4988833D1*
X1041838D1*
X1034708Y4991210D1*
X1032331Y4993642D1*
X1029899Y4998395D1*
X693104Y6039073D2*
Y5988833D1*
X721789D1*
X753974Y6039073D2*
Y5988833D1*
X737228Y6039073D2*
X770721D1*
X786160Y6029457D2*
X790969Y6031888D1*
X798154Y6039018D1*
Y5988833D1*
X818402Y6039018D2*
X844655D1*
X830340Y6019895D1*
X837525D1*
X842278Y6017518D1*
X844655Y6015142D1*
X847086Y6007957D1*
Y6003204D1*
X844655Y5996019D1*
X839901Y5991210D1*
X832716Y5988833D1*
X825531D1*
X818402Y5991210D1*
X816025Y5993642D1*
X813593Y5998395D1*
X891211Y6039018D2*
X867334D1*
X864958Y6017518D1*
X867334Y6019895D1*
X874519Y6022327D1*
X881649D1*
X888834Y6019895D1*
X893642Y6015142D1*
X896019Y6007957D1*
Y6003204D1*
X893642Y5996019D1*
X888834Y5991210D1*
X881649Y5988833D1*
X874519D1*
X867334Y5991210D1*
X864958Y5993642D1*
X862526Y5998395D1*
X923396Y6039018D2*
X916267Y6036642D1*
X913835Y6031888D1*
Y6027080D1*
X916267Y6022327D1*
X921020Y6019895D1*
X930582Y6017518D1*
X937767Y6015142D1*
X942520Y6010333D1*
X944896Y6005580D1*
Y5998395D1*
X942520Y5993642D1*
X940143Y5991210D1*
X932958Y5988833D1*
X923396D1*
X916267Y5991210D1*
X913835Y5993642D1*
X911458Y5998395D1*
Y6005580D1*
X913835Y6010333D1*
X918643Y6015142D1*
X925773Y6017518D1*
X935335Y6019895D1*
X940143Y6022327D1*
X942520Y6027080D1*
Y6031888D1*
X940143Y6036642D1*
X932958Y6039018D1*
X923396D1*
X1098631Y5716986D2*
X1091446Y5714609D1*
X1086638Y5707424D1*
X1084261Y5695486D1*
Y5688301D1*
X1086638Y5676363D1*
X1091446Y5669178D1*
X1098631Y5666801D1*
X1103385D1*
X1110570Y5669178D1*
X1115323Y5676363D1*
X1117755Y5688301D1*
Y5695486D1*
X1115323Y5707424D1*
X1110570Y5714609D1*
X1103385Y5716986D1*
X1098631D1*
X1115323Y5707424D2*
X1086638Y5676363D1*
X1135571Y5671610D2*
X1133194Y5669178D1*
X1135571Y5666801D1*
X1138002Y5669178D1*
X1135571Y5671610D1*
X1153442Y5707424D2*
X1158250Y5709856D1*
X1165435Y5716986D1*
Y5666801D1*
X1180874Y5700295D2*
Y5676363D1*
X1183251Y5669233D1*
X1188059Y5666801D1*
X1195244D1*
X1199998Y5669233D1*
X1207183Y5676363D1*
Y5700295D2*
Y5666801D1*
X1253739Y5717041D2*
X1222622D1*
Y5666801D1*
Y5693110D2*
X1241745D1*
X1048631Y4391986D2*
X1041446Y4389609D1*
X1036638Y4382424D1*
X1034261Y4370486D1*
Y4363301D1*
X1036638Y4351363D1*
X1041446Y4344178D1*
X1048631Y4341801D1*
X1053385D1*
X1060570Y4344178D1*
X1065323Y4351363D1*
X1067755Y4363301D1*
Y4370486D1*
X1065323Y4382424D1*
X1060570Y4389609D1*
X1053385Y4391986D1*
X1048631D1*
X1065323Y4382424D2*
X1036638Y4351363D1*
X1085571Y4346610D2*
X1083194Y4344178D1*
X1085571Y4341801D1*
X1088002Y4344178D1*
X1085571Y4346610D1*
X1103442Y4382424D2*
X1108250Y4384856D1*
X1115435Y4391986D1*
Y4341801D1*
X1130874Y4375295D2*
Y4351363D1*
X1133251Y4344233D1*
X1138059Y4341801D1*
X1145244D1*
X1149998Y4344233D1*
X1157183Y4351363D1*
Y4375295D2*
Y4341801D1*
X1203739Y4392041D2*
X1172622D1*
Y4341801D1*
Y4368110D2*
X1191745D1*
X966014Y5398632D2*
X968391Y5391447D1*
X975576Y5386638D1*
X987514Y5384261D1*
X994699D1*
X1006637Y5386638D1*
X1013822Y5391447D1*
X1016199Y5398632D1*
Y5403385D1*
X1013822Y5410570D1*
X1006637Y5415323D1*
X994699Y5417755D1*
X987514D1*
X975576Y5415323D1*
X968391Y5410570D1*
X966014Y5403385D1*
Y5398632D1*
X975576Y5415323D2*
X1006637Y5386638D1*
X1011390Y5435571D2*
X1013822Y5433194D1*
X1016199Y5435571D1*
X1013822Y5438002D1*
X1011390Y5435571D1*
X975576Y5453442D2*
X973144Y5458250D1*
X966014Y5465435D1*
X1016199D1*
X982705Y5480874D2*
X1006637D1*
X1013767Y5483251D1*
X1016199Y5488059D1*
Y5495244D1*
X1013767Y5499998D1*
X1006637Y5507183D1*
X982705D2*
X1016199D1*
X965959Y5553739D2*
Y5522622D1*
X1016199D1*
X989890D2*
Y5541745D1*
X1173631Y4646986D2*
X1166446Y4644609D1*
X1161638Y4637424D1*
X1159261Y4625486D1*
Y4618301D1*
X1161638Y4606363D1*
X1166446Y4599178D1*
X1173631Y4596801D1*
X1178385D1*
X1185570Y4599178D1*
X1190323Y4606363D1*
X1192755Y4618301D1*
Y4625486D1*
X1190323Y4637424D1*
X1185570Y4644609D1*
X1178385Y4646986D1*
X1173631D1*
X1190323Y4637424D2*
X1161638Y4606363D1*
X1210571Y4601610D2*
X1208194Y4599178D1*
X1210571Y4596801D1*
X1213002Y4599178D1*
X1210571Y4601610D1*
X1228442Y4637424D2*
X1233250Y4639856D1*
X1240435Y4646986D1*
Y4596801D1*
X1255874Y4630295D2*
Y4606363D1*
X1258251Y4599233D1*
X1263059Y4596801D1*
X1270244D1*
X1274998Y4599233D1*
X1282183Y4606363D1*
Y4630295D2*
Y4596801D1*
X1328739Y4647041D2*
X1297622D1*
Y4596801D1*
Y4623110D2*
X1316745D1*
X467036Y6071751D2*
Y6021511D1*
X488591D1*
X495776Y6023942D1*
X498153Y6026319D1*
X500530Y6031072D1*
Y6038257D1*
X498153Y6043066D1*
X495776Y6045442D1*
X488591Y6047819D1*
X495776Y6050251D1*
X498153Y6052627D1*
X500530Y6057381D1*
Y6062189D1*
X498153Y6066942D1*
X495776Y6069374D1*
X488591Y6071751D1*
X467036D1*
Y6047819D2*
X488591D1*
X544654Y6055004D2*
Y6021511D1*
Y6047819D2*
X539901Y6052627D1*
X535092Y6055004D1*
X527962D1*
X523154Y6052627D1*
X518401Y6047819D1*
X515969Y6040634D1*
Y6035881D1*
X518401Y6028696D1*
X523154Y6023942D1*
X527962Y6021511D1*
X535092D1*
X539901Y6023942D1*
X544654Y6028696D1*
X567278Y6071751D2*
Y6031072D1*
X569655Y6023942D1*
X574463Y6021511D1*
X579216D1*
X560093Y6055004D2*
X576840D1*
X594655Y6071751D2*
Y6021511D1*
Y6045442D2*
X601841Y6052627D1*
X606649Y6055004D1*
X613834D1*
X618587Y6052627D1*
X620964Y6045442D1*
Y6021511D1*
X1080817Y5535576D2*
X1078441Y5540329D1*
X1073632Y5545137D1*
X1068879Y5547514D1*
X1059317D1*
X1054509Y5545137D1*
X1049756Y5540329D1*
X1047324Y5535576D1*
X1044947Y5528390D1*
Y5516397D1*
X1047324Y5509267D1*
X1049756Y5504459D1*
X1054509Y5499706D1*
X1059317Y5497274D1*
X1068879D1*
X1073632Y5499706D1*
X1078441Y5504459D1*
X1080817Y5509267D1*
X1096257Y5530767D2*
Y5497274D1*
Y5521205D2*
X1103442Y5528390D1*
X1108250Y5530767D1*
X1115380D1*
X1120188Y5528390D1*
X1122565Y5521205D1*
Y5497274D1*
Y5521205D2*
X1129750Y5528390D1*
X1134558Y5530767D1*
X1141688D1*
X1146497Y5528390D1*
X1148928Y5521205D1*
Y5497274D1*
X1193053Y5547514D2*
Y5497274D1*
Y5523582D2*
X1188299Y5528390D1*
X1183491Y5530767D1*
X1176306D1*
X1171553Y5528390D1*
X1166744Y5523582D1*
X1164368Y5516397D1*
Y5511644D1*
X1166744Y5504459D1*
X1171553Y5499706D1*
X1176306Y5497274D1*
X1183491D1*
X1188299Y5499706D1*
X1193053Y5504459D1*
X694163Y4376894D2*
X721798D1*
X773107Y4390103D2*
X770731Y4394856D1*
X765922Y4399665D1*
X761169Y4402041D1*
X751607D1*
X746799Y4399665D1*
X742046Y4394856D1*
X739614Y4390103D1*
X737237Y4382918D1*
Y4370925D1*
X739614Y4363795D1*
X742046Y4358986D1*
X746799Y4354233D1*
X751607Y4351801D1*
X761169D1*
X765922Y4354233D1*
X770731Y4358986D1*
X773107Y4363795D1*
X788546Y4385295D2*
Y4351801D1*
Y4375733D2*
X795732Y4382918D1*
X800540Y4385295D1*
X807670D1*
X812478Y4382918D1*
X814855Y4375733D1*
Y4351801D1*
Y4375733D2*
X822040Y4382918D1*
X826848Y4385295D1*
X833978D1*
X838786Y4382918D1*
X841218Y4375733D1*
Y4351801D1*
X885342Y4402041D2*
Y4351801D1*
Y4378110D2*
X880589Y4382918D1*
X875781Y4385295D1*
X868596D1*
X863843Y4382918D1*
X859034Y4378110D1*
X856658Y4370925D1*
Y4366171D1*
X859034Y4358986D1*
X863843Y4354233D1*
X868596Y4351801D1*
X875781D1*
X880589Y4354233D1*
X885342Y4358986D1*
X922282Y4398421D2*
Y4355366D1*
X900782Y4376866D2*
X943837D1*
X430394Y5617663D2*
X427962Y5622472D1*
X420832Y5629657D1*
X471017D1*
X432770Y5647528D2*
X430394D1*
X425585Y5649904D1*
X423209Y5652281D1*
X420832Y5657090D1*
Y5666651D1*
X423209Y5671404D1*
X425585Y5673781D1*
X430394Y5676213D1*
X435147D1*
X439956Y5673781D1*
X447085Y5669028D1*
X471017Y5645096D1*
Y5678589D1*
X420777Y5694029D2*
X471017D1*
X437524Y5717960D2*
X461455Y5694029D1*
X451894Y5703590D2*
X471017Y5720337D1*
X1082770Y5099783D2*
X1080394D1*
X1075585Y5102159D1*
X1073209Y5104536D1*
X1070832Y5109344D1*
Y5118906D1*
X1073209Y5123659D1*
X1075585Y5126036D1*
X1080394Y5128468D1*
X1085147D1*
X1089956Y5126036D1*
X1097085Y5121283D1*
X1121017Y5097351D1*
Y5130844D1*
X1070832Y5151092D2*
Y5177345D1*
X1089956Y5163030D1*
Y5170215D1*
X1092332Y5174968D1*
X1094709Y5177345D1*
X1101894Y5179777D1*
X1106647D1*
X1113832Y5177345D1*
X1118640Y5172592D1*
X1121017Y5165407D1*
Y5158222D1*
X1118640Y5151092D1*
X1116209Y5148715D1*
X1111455Y5146283D1*
X1116209Y5197593D2*
X1118640Y5195216D1*
X1121017Y5197593D1*
X1118640Y5200024D1*
X1116209Y5197593D1*
X1070832Y5227402D2*
X1073209Y5220272D1*
X1077962Y5217840D1*
X1082770D1*
X1087524Y5220272D1*
X1089955Y5225025D1*
X1092332Y5234587D1*
X1094709Y5241772D1*
X1099517Y5246525D1*
X1104270Y5248902D1*
X1111455D1*
X1116209Y5246525D1*
X1118640Y5244149D1*
X1121017Y5236963D1*
Y5227402D1*
X1118640Y5220272D1*
X1116209Y5217840D1*
X1111455Y5215464D1*
X1104270D1*
X1099517Y5217840D1*
X1094709Y5222649D1*
X1092332Y5229778D1*
X1089955Y5239340D1*
X1087524Y5244149D1*
X1082770Y5246525D1*
X1077962D1*
X1073209Y5244149D1*
X1070832Y5236964D1*
Y5227402D1*
X1070777Y5264341D2*
X1121017D1*
X1087524Y5288273D2*
X1111455Y5264341D1*
X1101894Y5273903D2*
X1121017Y5290649D1*
X450394Y5194403D2*
X447962Y5199211D1*
X440832Y5206396D1*
X491017D1*
X452770Y5224267D2*
X450394D1*
X445585Y5226644D1*
X443209Y5229020D1*
X440832Y5233829D1*
Y5243390D1*
X443209Y5248144D1*
X445585Y5250520D1*
X450394Y5252952D1*
X455147D1*
X459956Y5250520D1*
X467085Y5245767D1*
X491017Y5221835D1*
Y5255329D1*
X440832Y5285138D2*
X443209Y5277953D1*
X450394Y5273144D1*
X462332Y5270768D1*
X469517D1*
X481455Y5273144D1*
X488640Y5277953D1*
X491017Y5285138D1*
Y5289891D1*
X488640Y5297076D1*
X481455Y5301829D1*
X469517Y5304261D1*
X462332D1*
X450394Y5301829D1*
X443209Y5297076D1*
X440832Y5289891D1*
Y5285138D1*
X450394Y5301829D2*
X481455Y5273144D1*
X457524Y5368301D2*
X507764D1*
X464709D2*
X459955Y5373110D1*
X457524Y5377863D1*
Y5385048D1*
X459955Y5389856D1*
X464709Y5394610D1*
X471894Y5397042D1*
X476702D1*
X483832Y5394610D1*
X488640Y5389856D1*
X491017Y5385048D1*
Y5377863D1*
X488640Y5373110D1*
X483832Y5368301D1*
X440777Y5443598D2*
Y5412481D1*
X491017D1*
X464709D2*
Y5431604D1*
X943999Y5260576D2*
X941623Y5265329D1*
X936814Y5270137D1*
X932061Y5272514D1*
X922499D1*
X917691Y5270137D1*
X912938Y5265329D1*
X910506Y5260576D1*
X908129Y5253390D1*
Y5241397D1*
X910506Y5234267D1*
X912938Y5229459D1*
X917691Y5224706D1*
X922499Y5222274D1*
X932061D1*
X936814Y5224706D1*
X941623Y5229459D1*
X943999Y5234267D1*
Y5241397D1*
X932061D1*
X959438Y5255767D2*
Y5222274D1*
Y5246205D2*
X966623Y5253390D1*
X971432Y5255767D1*
X978562D1*
X983370Y5253390D1*
X985747Y5246205D1*
Y5222274D1*
X1029871Y5272514D2*
Y5222274D1*
Y5248582D2*
X1025118Y5253390D1*
X1020309Y5255767D1*
X1013124D1*
X1008371Y5253390D1*
X1003563Y5248582D1*
X1001186Y5241397D1*
Y5236644D1*
X1003563Y5229459D1*
X1008371Y5224706D1*
X1013124Y5222274D1*
X1020309D1*
X1025118Y5224706D1*
X1029871Y5229459D1*
X420832Y4715873D2*
X423209Y4708688D1*
X430394Y4703880D1*
X442332Y4701503D1*
X449517D1*
X461455Y4703880D1*
X468640Y4708688D1*
X471017Y4715873D1*
Y4720626D1*
X468640Y4727811D1*
X461455Y4732564D1*
X449517Y4734996D1*
X442332D1*
X430394Y4732565D1*
X423209Y4727811D1*
X420832Y4720626D1*
Y4715873D1*
X430394Y4732565D2*
X461455Y4703880D1*
X424397Y4820536D2*
X467452D1*
X445952Y4799037D2*
Y4842091D1*
X430394Y4857531D2*
X427962Y4862339D1*
X420832Y4869524D1*
X471017D1*
X420832Y4913648D2*
Y4889772D1*
X442332Y4887395D1*
X439955Y4889772D1*
X437524Y4896957D1*
Y4904087D1*
X439955Y4911272D1*
X444709Y4916080D1*
X451894Y4918457D1*
X456647D1*
X463832Y4916080D1*
X468640Y4911272D1*
X471017Y4904087D1*
Y4896957D1*
X468640Y4889772D1*
X466208Y4887395D1*
X461455Y4884963D1*
X445925Y4982497D2*
Y5010132D1*
X430394Y5025571D2*
X427962Y5030379D1*
X420832Y5037564D1*
X471017D1*
X420832Y5081689D2*
Y5057812D1*
X442332Y5055436D1*
X439955Y5057812D1*
X437524Y5064997D1*
Y5072127D1*
X439955Y5079312D1*
X444709Y5084120D1*
X451894Y5086497D1*
X456647D1*
X463832Y5084120D1*
X468640Y5079312D1*
X471017Y5072127D1*
Y5064997D1*
X468640Y5057812D1*
X466208Y5055436D1*
X461455Y5053004D1*
X668999Y4960576D2*
X666623Y4965329D1*
X661814Y4970137D1*
X657061Y4972514D1*
X647499D1*
X642691Y4970137D1*
X637938Y4965329D1*
X635506Y4960576D1*
X633129Y4953390D1*
Y4941397D1*
X635506Y4934267D1*
X637938Y4929459D1*
X642691Y4924706D1*
X647499Y4922274D1*
X657061D1*
X661814Y4924706D1*
X666623Y4929459D1*
X668999Y4934267D1*
Y4941397D1*
X657061D1*
X684438Y4955767D2*
Y4922274D1*
Y4946205D2*
X691623Y4953390D1*
X696432Y4955767D1*
X703562D1*
X708370Y4953390D1*
X710747Y4946205D1*
Y4922274D1*
X754871Y4972514D2*
Y4922274D1*
Y4948582D2*
X750118Y4953390D1*
X745309Y4955767D1*
X738124D1*
X733371Y4953390D1*
X728563Y4948582D1*
X726186Y4941397D1*
Y4936644D1*
X728563Y4929459D1*
X733371Y4924706D1*
X738124Y4922274D1*
X745309D1*
X750118Y4924706D1*
X754871Y4929459D1*
X789539Y3714073D2*
X784730Y3711697D1*
X779977Y3706888D1*
X777545Y3702135D1*
X775169Y3694950D1*
Y3682957D1*
X777545Y3675827D1*
X779977Y3671019D1*
X784730Y3666265D1*
X789539Y3663833D1*
X799100D1*
X803854Y3666265D1*
X808662Y3671019D1*
X811039Y3675827D1*
X813415Y3682957D1*
Y3694950D1*
X811039Y3702135D1*
X808662Y3706888D1*
X803854Y3711697D1*
X799100Y3714073D1*
X789539D1*
X828854Y3687765D2*
X850410D1*
X857539Y3690142D1*
X859971Y3692574D1*
X862348Y3697327D1*
Y3704512D1*
X859971Y3709265D1*
X857539Y3711697D1*
X850410Y3714073D1*
X828854D1*
Y3663833D1*
X916089D2*
X896910Y3714073D1*
X877787Y3663833D1*
X884972Y3680580D2*
X908904D1*
X960213Y3706888D2*
X957836Y3711642D1*
X950651Y3714018D1*
X945898D1*
X938713Y3711642D1*
X933905Y3704457D1*
X931528Y3692518D1*
Y3680580D1*
X933905Y3671019D1*
X938713Y3666210D1*
X945898Y3663833D1*
X948275D1*
X955405Y3666210D1*
X960213Y3671019D1*
X962590Y3678204D1*
Y3680580D1*
X960213Y3687765D1*
X955405Y3692518D1*
X948275Y3694895D1*
X945898D1*
X938713Y3692518D1*
X933905Y3687765D1*
X931528Y3680580D1*
X992399Y3714018D2*
X985214Y3711642D1*
X980405Y3704457D1*
X978029Y3692518D1*
Y3685333D1*
X980405Y3673395D1*
X985214Y3666210D1*
X992399Y3663833D1*
X997152D1*
X1004337Y3666210D1*
X1009090Y3673395D1*
X1011522Y3685333D1*
Y3692518D1*
X1009090Y3704457D1*
X1004337Y3711642D1*
X997152Y3714018D1*
X992399D1*
X1009090Y3704457D2*
X980405Y3673395D1*
X1050893Y3663833D2*
Y3714018D1*
X1026961Y3680580D1*
X1062831D1*
X831230Y2989073D2*
Y2938833D1*
X880163Y2989073D2*
Y2938833D1*
X846669Y2989073D1*
Y2938833D1*
X933904D2*
X914725Y2989073D1*
X895602Y2938833D1*
X902787Y2955580D2*
X926719D1*
X949343Y2979457D2*
X954151Y2981888D1*
X961337Y2989018D1*
Y2938833D1*
X991146Y2989018D2*
X983961Y2986642D1*
X979152Y2979457D1*
X976776Y2967518D1*
Y2960333D1*
X979152Y2948395D1*
X983961Y2941210D1*
X991146Y2938833D1*
X995899D1*
X1003084Y2941210D1*
X1007837Y2948395D1*
X1010269Y2960333D1*
Y2967518D1*
X1007837Y2979457D1*
X1003084Y2986642D1*
X995899Y2989018D1*
X991146D1*
X1007837Y2979457D2*
X979152Y2948395D1*
X1054393Y2981888D2*
X1052017Y2986642D1*
X1044832Y2989018D1*
X1040078D1*
X1032893Y2986642D1*
X1028085Y2979457D1*
X1025708Y2967518D1*
Y2955580D1*
X1028085Y2946019D1*
X1032893Y2941210D1*
X1040078Y2938833D1*
X1042455D1*
X1049585Y2941210D1*
X1054393Y2946019D1*
X1056770Y2953204D1*
Y2955580D1*
X1054393Y2962765D1*
X1049585Y2967518D1*
X1042455Y2969895D1*
X1040078D1*
X1032893Y2967518D1*
X1028085Y2962765D1*
X1025708Y2955580D1*
X1271014Y3473632D2*
X1273391Y3466447D1*
X1280576Y3461638D1*
X1292514Y3459261D1*
X1299699D1*
X1311637Y3461638D1*
X1318822Y3466447D1*
X1321199Y3473632D1*
Y3478385D1*
X1318822Y3485570D1*
X1311637Y3490323D1*
X1299699Y3492755D1*
X1292514D1*
X1280576Y3490323D1*
X1273391Y3485570D1*
X1271014Y3478385D1*
Y3473632D1*
X1280576Y3490323D2*
X1311637Y3461638D1*
X1316390Y3510571D2*
X1318822Y3508194D1*
X1321199Y3510571D1*
X1318822Y3513002D1*
X1316390Y3510571D1*
X1280576Y3528442D2*
X1278144Y3533250D1*
X1271014Y3540435D1*
X1321199D1*
X1287705Y3555874D2*
X1311637D1*
X1318767Y3558251D1*
X1321199Y3563059D1*
Y3570244D1*
X1318767Y3574998D1*
X1311637Y3582183D1*
X1287705D2*
X1321199D1*
X1270959Y3628739D2*
Y3597622D1*
X1321199D1*
X1294890D2*
Y3616745D1*
X728376Y3905230D2*
Y3907606D1*
X730753Y3912415D1*
X733129Y3914791D1*
X737938Y3917168D1*
X747499D1*
X752252Y3914791D1*
X754629Y3912415D1*
X757061Y3907606D1*
Y3902853D1*
X754629Y3898045D1*
X749876Y3890915D1*
X725944Y3866983D1*
X759437D1*
X789247Y3917168D2*
X782062Y3914791D1*
X777253Y3907606D1*
X774877Y3895668D1*
Y3888483D1*
X777253Y3876545D1*
X782062Y3869360D1*
X789247Y3866983D1*
X794000D1*
X801185Y3869360D1*
X805938Y3876545D1*
X808370Y3888483D1*
Y3895668D1*
X805938Y3907606D1*
X801185Y3914791D1*
X794000Y3917168D1*
X789247D1*
X805938Y3907606D2*
X777253Y3876545D1*
X862056Y3866983D2*
Y3917223D1*
X842933Y3866983D1*
X823809Y3917223D1*
Y3866983D1*
X848631Y3066986D2*
X841446Y3064609D1*
X836638Y3057424D1*
X834261Y3045486D1*
Y3038301D1*
X836638Y3026363D1*
X841446Y3019178D1*
X848631Y3016801D1*
X853385D1*
X860570Y3019178D1*
X865323Y3026363D1*
X867755Y3038301D1*
Y3045486D1*
X865323Y3057424D1*
X860570Y3064609D1*
X853385Y3066986D1*
X848631D1*
X865323Y3057424D2*
X836638Y3026363D1*
X885571Y3021610D2*
X883194Y3019178D1*
X885571Y3016801D1*
X888002Y3019178D1*
X885571Y3021610D1*
X903442Y3057424D2*
X908250Y3059856D1*
X915435Y3066986D1*
Y3016801D1*
X930874Y3050295D2*
Y3026363D1*
X933251Y3019233D1*
X938059Y3016801D1*
X945244D1*
X949998Y3019233D1*
X957183Y3026363D1*
Y3050295D2*
Y3016801D1*
X1003739Y3067041D2*
X972622D1*
Y3016801D1*
Y3043110D2*
X991745D1*
X742663Y1332606D2*
X747472Y1335038D1*
X754657Y1342168D1*
Y1291983D1*
X784466Y1342168D2*
X777281Y1339791D1*
X772473Y1332606D1*
X770096Y1320668D1*
Y1313483D1*
X772473Y1301545D1*
X777281Y1294360D1*
X784466Y1291983D1*
X789219D1*
X796404Y1294360D1*
X801157Y1301545D1*
X803589Y1313483D1*
Y1320668D1*
X801157Y1332606D1*
X796404Y1339791D1*
X789219Y1342168D1*
X784466D1*
X801157Y1332606D2*
X772473Y1301545D1*
X819029Y1342223D2*
Y1291983D1*
X842960Y1325476D2*
X819029Y1301545D1*
X828590Y1311106D2*
X845337Y1291983D1*
X530394Y3218197D2*
X527962Y3223005D1*
X520832Y3230191D1*
X571017Y3230190D1*
X520832Y3260000D2*
X523209Y3252815D1*
X530394Y3248006D1*
X542332Y3245630D1*
X549517D1*
X561455Y3248006D1*
X568640Y3252815D1*
X571017Y3260000D1*
Y3264753D1*
X568640Y3271938D1*
X561455Y3276691D1*
X549517Y3279123D1*
X542332D1*
X530394Y3276691D1*
X523209Y3271938D1*
X520832Y3264753D1*
Y3260000D1*
X530394Y3276691D2*
X561455Y3248006D1*
X520832Y3308932D2*
X523209Y3301747D1*
X530394Y3296939D1*
X542332Y3294562D1*
X549517D1*
X561455Y3296939D1*
X568640Y3301747D1*
X571017Y3308932D1*
Y3313685D1*
X568640Y3320871D1*
X561455Y3325624D1*
X549517Y3328056D1*
X542332D1*
X530394Y3325624D1*
X523209Y3320871D1*
X520832Y3313686D1*
Y3308932D1*
X530394Y3325624D2*
X561455Y3296939D1*
X520777Y3343495D2*
X571017D1*
X537524Y3367427D2*
X561455Y3343495D1*
X551894Y3353056D2*
X571017Y3369803D1*
X902952Y3885017D2*
X900576D1*
X895767Y3887394D1*
X893391Y3889770D1*
X891014Y3894579D1*
Y3904140D1*
X893391Y3908894D1*
X895767Y3911270D1*
X900576Y3913702D1*
X905329D1*
X910137Y3911270D1*
X917267Y3906517D1*
X941199Y3882585D1*
Y3916079D1*
X907705Y3980119D2*
X957945D1*
X914890D2*
X910137Y3984927D1*
X907705Y3989680D1*
Y3996865D1*
X910137Y4001674D1*
X914890Y4006427D1*
X922075Y4008859D1*
X926884D1*
X934014Y4006427D1*
X938822Y4001674D1*
X941199Y3996865D1*
Y3989680D1*
X938822Y3984927D1*
X934014Y3980119D1*
X890959Y4055415D2*
Y4024298D1*
X941199D1*
X914890D2*
Y4043421D1*
X498126Y3196751D2*
Y3146511D1*
X513565Y3180004D2*
Y3146511D1*
Y3170442D2*
X520751Y3177627D1*
X525559Y3180004D1*
X532689D1*
X537497Y3177627D1*
X539874Y3170442D1*
Y3146511D1*
X505817Y3634812D2*
X503441Y3639566D1*
X498632Y3644374D1*
X493879Y3646751D1*
X484317D1*
X479509Y3644374D1*
X474756Y3639566D1*
X472324Y3634812D1*
X469947Y3627627D1*
Y3615634D1*
X472324Y3608504D1*
X474756Y3603696D1*
X479509Y3598942D1*
X484317Y3596511D1*
X493879D1*
X498632Y3598942D1*
X503441Y3603696D1*
X505817Y3608504D1*
X521257Y3630004D2*
Y3596511D1*
Y3620442D2*
X528442Y3627627D1*
X533250Y3630004D1*
X540380D1*
X545188Y3627627D1*
X547565Y3620442D1*
Y3596511D1*
Y3620442D2*
X554750Y3627627D1*
X559558Y3630004D1*
X566688D1*
X571497Y3627627D1*
X573928Y3620442D1*
Y3596511D1*
X618053Y3646751D2*
Y3596511D1*
Y3622819D2*
X613299Y3627627D1*
X608491Y3630004D1*
X601306D1*
X596553Y3627627D1*
X591744Y3622819D1*
X589368Y3615634D1*
Y3610881D1*
X591744Y3603696D1*
X596553Y3598942D1*
X601306Y3596511D1*
X608491D1*
X613299Y3598942D1*
X618053Y3603696D1*
X1246014Y2998632D2*
X1248391Y2991447D1*
X1255576Y2986638D1*
X1267514Y2984261D1*
X1274699D1*
X1286637Y2986638D1*
X1293822Y2991447D1*
X1296199Y2998632D1*
Y3003385D1*
X1293822Y3010570D1*
X1286637Y3015323D1*
X1274699Y3017755D1*
X1267514D1*
X1255576Y3015323D1*
X1248391Y3010570D1*
X1246014Y3003385D1*
Y2998632D1*
X1255576Y3015323D2*
X1286637Y2986638D1*
X1291390Y3035571D2*
X1293822Y3033194D1*
X1296199Y3035571D1*
X1293822Y3038002D1*
X1291390Y3035571D1*
X1255576Y3053442D2*
X1253144Y3058250D1*
X1246014Y3065435D1*
X1296199D1*
X1262705Y3080874D2*
X1286637D1*
X1293767Y3083251D1*
X1296199Y3088059D1*
Y3095244D1*
X1293767Y3099998D1*
X1286637Y3107183D1*
X1262705D2*
X1296199D1*
X1245959Y3153739D2*
Y3122622D1*
X1296199D1*
X1269890D2*
Y3141745D1*
X673631Y2341986D2*
X666446Y2339609D1*
X661638Y2332424D1*
X659261Y2320486D1*
Y2313301D1*
X661638Y2301363D1*
X666446Y2294178D1*
X673631Y2291801D1*
X678385D1*
X685570Y2294178D1*
X690323Y2301363D1*
X692755Y2313301D1*
Y2320486D1*
X690323Y2332424D1*
X685570Y2339609D1*
X678385Y2341986D1*
X673631D1*
X690323Y2332424D2*
X661638Y2301363D1*
X710571Y2296610D2*
X708194Y2294178D1*
X710571Y2291801D1*
X713002Y2294178D1*
X710571Y2296610D1*
X728442Y2332424D2*
X733250Y2334856D1*
X740435Y2341986D1*
Y2291801D1*
X755874Y2325295D2*
Y2301363D1*
X758251Y2294233D1*
X763059Y2291801D1*
X770244D1*
X774998Y2294233D1*
X782183Y2301363D1*
Y2325295D2*
Y2291801D1*
X828739Y2342041D2*
X797622D1*
Y2291801D1*
Y2318110D2*
X816745D1*
X1206472Y2922168D2*
X1182595D1*
X1180219Y2900668D1*
X1182595Y2903045D1*
X1189781Y2905476D1*
X1196910D1*
X1204095Y2903045D1*
X1208904Y2898291D1*
X1211280Y2891106D1*
Y2886353D1*
X1208904Y2879168D1*
X1204095Y2874360D1*
X1196910Y2871983D1*
X1189781D1*
X1182595Y2874360D1*
X1180219Y2876792D1*
X1177787Y2881545D1*
X1241090Y2922168D2*
X1233905Y2919791D1*
X1229096Y2912606D1*
X1226720Y2900668D1*
Y2893483D1*
X1229096Y2881545D1*
X1233905Y2874360D1*
X1241090Y2871983D1*
X1245843D1*
X1253028Y2874360D1*
X1257781Y2881545D1*
X1260213Y2893483D1*
Y2900668D1*
X1257781Y2912606D1*
X1253028Y2919791D1*
X1245843Y2922168D1*
X1241090D1*
X1257781Y2912606D2*
X1229096Y2881545D1*
X935938Y2326894D2*
X963572D1*
X993382Y2352041D2*
X988573Y2349665D1*
X983820Y2344856D1*
X981388Y2340103D1*
X979012Y2332918D1*
Y2320925D1*
X981388Y2313795D1*
X983820Y2308986D1*
X988573Y2304233D1*
X993382Y2301801D1*
X1002943D1*
X1007697Y2304233D1*
X1012505Y2308986D1*
X1014882Y2313795D1*
X1017258Y2320925D1*
Y2332918D1*
X1014882Y2340103D1*
X1012505Y2344856D1*
X1007697Y2349665D1*
X1002943Y2352041D1*
X993382D1*
X1032697Y2335295D2*
Y2311363D1*
X1035074Y2304233D1*
X1039882Y2301801D1*
X1047067D1*
X1051821Y2304233D1*
X1059006Y2311363D1*
Y2335295D2*
Y2301801D1*
X1081630Y2352041D2*
Y2311363D1*
X1084007Y2304233D1*
X1088815Y2301801D1*
X1093568D1*
X1074445Y2335295D2*
X1091192D1*
X1130507Y2348421D2*
Y2305366D1*
X1109007Y2326866D2*
X1152062D1*
X420832Y2665873D2*
X423209Y2658688D1*
X430394Y2653880D1*
X442332Y2651503D1*
X449517D1*
X461455Y2653880D1*
X468640Y2658688D1*
X471017Y2665873D1*
Y2670626D1*
X468640Y2677811D1*
X461455Y2682564D1*
X449517Y2684996D1*
X442332D1*
X430394Y2682565D1*
X423209Y2677811D1*
X420832Y2670626D1*
Y2665873D1*
X430394Y2682565D2*
X461455Y2653880D1*
X424397Y2770536D2*
X467452D1*
X445952Y2749037D2*
Y2792091D1*
X430394Y2807531D2*
X427962Y2812339D1*
X420832Y2819524D1*
X471017D1*
X420832Y2863648D2*
Y2839772D1*
X442332Y2837395D1*
X439955Y2839772D1*
X437524Y2846957D1*
Y2854087D1*
X439955Y2861272D1*
X444709Y2866080D1*
X451894Y2868457D1*
X456647D1*
X463832Y2866080D1*
X468640Y2861272D1*
X471017Y2854087D1*
Y2846957D1*
X468640Y2839772D1*
X466208Y2837395D1*
X461455Y2834963D1*
X445925Y2932497D2*
Y2960132D1*
X430394Y2975571D2*
X427962Y2980379D1*
X420832Y2987564D1*
X471017D1*
X420832Y3031689D2*
Y3007812D1*
X442332Y3005436D1*
X439955Y3007812D1*
X437524Y3014997D1*
Y3022127D1*
X439955Y3029312D1*
X444709Y3034120D1*
X451894Y3036497D1*
X456647D1*
X463832Y3034120D1*
X468640Y3029312D1*
X471017Y3022127D1*
Y3014997D1*
X468640Y3007812D1*
X466208Y3005436D1*
X461455Y3003004D1*
X468999Y2360576D2*
X466623Y2365329D1*
X461814Y2370137D1*
X457061Y2372514D1*
X447499D1*
X442691Y2370137D1*
X437938Y2365329D1*
X435506Y2360576D1*
X433129Y2353390D1*
Y2341397D1*
X435506Y2334267D1*
X437938Y2329459D1*
X442691Y2324706D1*
X447499Y2322274D1*
X457061D1*
X461814Y2324706D1*
X466623Y2329459D1*
X468999Y2334267D1*
Y2341397D1*
X457061D1*
X484438Y2355767D2*
Y2322274D1*
Y2346205D2*
X491623Y2353390D1*
X496432Y2355767D1*
X503562D1*
X508370Y2353390D1*
X510747Y2346205D1*
Y2322274D1*
X554871Y2372514D2*
Y2322274D1*
Y2348582D2*
X550118Y2353390D1*
X545309Y2355767D1*
X538124D1*
X533371Y2353390D1*
X528563Y2348582D1*
X526186Y2341397D1*
Y2336644D1*
X528563Y2329459D1*
X533371Y2324706D1*
X538124Y2322274D1*
X545309D1*
X550118Y2324706D1*
X554871Y2329459D1*
X862909Y1088833D2*
X843731Y1139073D1*
X824607Y1088833D1*
X831792Y1105580D2*
X855724D1*
X916595Y1088833D2*
Y1139073D1*
X897472Y1088833D1*
X878348Y1139073D1*
Y1088833D1*
X932034Y1112765D2*
X953589D1*
X960719Y1115142D1*
X963151Y1117574D1*
X965527Y1122327D1*
Y1129512D1*
X963151Y1134265D1*
X960719Y1136697D1*
X953589Y1139073D1*
X932034D1*
Y1088833D1*
X995337Y1139018D2*
X988152Y1136642D1*
X983343Y1129457D1*
X980967Y1117518D1*
Y1110333D1*
X983343Y1098395D1*
X988152Y1091210D1*
X995337Y1088833D1*
X1000090D1*
X1007275Y1091210D1*
X1012028Y1098395D1*
X1014460Y1110333D1*
Y1117518D1*
X1012028Y1129457D1*
X1007275Y1136642D1*
X1000090Y1139018D1*
X995337D1*
X1012028Y1129457D2*
X983343Y1098395D1*
X1034708Y1139018D2*
X1060961D1*
X1046646Y1119895D1*
X1053831D1*
X1058584Y1117518D1*
X1060961Y1115142D1*
X1063393Y1107957D1*
Y1103204D1*
X1060961Y1096019D1*
X1056208Y1091210D1*
X1049023Y1088833D1*
X1041838D1*
X1034708Y1091210D1*
X1032331Y1093642D1*
X1029899Y1098395D1*
X693104Y2139073D2*
Y2088833D1*
X721789D1*
X753974Y2139073D2*
Y2088833D1*
X737228Y2139073D2*
X770721D1*
X786160Y2129457D2*
X790969Y2131888D1*
X798154Y2139018D1*
Y2088833D1*
X818402Y2139018D2*
X844655D1*
X830340Y2119895D1*
X837525D1*
X842278Y2117518D1*
X844655Y2115142D1*
X847086Y2107957D1*
Y2103204D1*
X844655Y2096019D1*
X839901Y2091210D1*
X832716Y2088833D1*
X825531D1*
X818402Y2091210D1*
X816025Y2093642D1*
X813593Y2098395D1*
X891211Y2139018D2*
X867334D1*
X864958Y2117518D1*
X867334Y2119895D1*
X874519Y2122327D1*
X881649D1*
X888834Y2119895D1*
X893642Y2115142D1*
X896019Y2107957D1*
Y2103204D1*
X893642Y2096019D1*
X888834Y2091210D1*
X881649Y2088833D1*
X874519D1*
X867334Y2091210D1*
X864958Y2093642D1*
X862526Y2098395D1*
X923396Y2139018D2*
X916267Y2136642D1*
X913835Y2131888D1*
Y2127080D1*
X916267Y2122327D1*
X921020Y2119895D1*
X930582Y2117518D1*
X937767Y2115142D1*
X942520Y2110333D1*
X944896Y2105580D1*
Y2098395D1*
X942520Y2093642D1*
X940143Y2091210D1*
X932958Y2088833D1*
X923396D1*
X916267Y2091210D1*
X913835Y2093642D1*
X911458Y2098395D1*
Y2105580D1*
X913835Y2110333D1*
X918643Y2115142D1*
X925773Y2117518D1*
X935335Y2119895D1*
X940143Y2122327D1*
X942520Y2127080D1*
Y2131888D1*
X940143Y2136642D1*
X932958Y2139018D1*
X923396D1*
X1098631Y1816986D2*
X1091446Y1814609D1*
X1086638Y1807424D1*
X1084261Y1795486D1*
Y1788301D1*
X1086638Y1776363D1*
X1091446Y1769178D1*
X1098631Y1766801D1*
X1103385D1*
X1110570Y1769178D1*
X1115323Y1776363D1*
X1117755Y1788301D1*
Y1795486D1*
X1115323Y1807424D1*
X1110570Y1814609D1*
X1103385Y1816986D1*
X1098631D1*
X1115323Y1807424D2*
X1086638Y1776363D1*
X1135571Y1771610D2*
X1133194Y1769178D1*
X1135571Y1766801D1*
X1138002Y1769178D1*
X1135571Y1771610D1*
X1153442Y1807424D2*
X1158250Y1809856D1*
X1165435Y1816986D1*
Y1766801D1*
X1180874Y1800295D2*
Y1776363D1*
X1183251Y1769233D1*
X1188059Y1766801D1*
X1195244D1*
X1199998Y1769233D1*
X1207183Y1776363D1*
Y1800295D2*
Y1766801D1*
X1253739Y1817041D2*
X1222622D1*
Y1766801D1*
Y1793110D2*
X1241745D1*
X1048631Y491986D2*
X1041446Y489609D1*
X1036638Y482424D1*
X1034261Y470486D1*
Y463301D1*
X1036638Y451363D1*
X1041446Y444178D1*
X1048631Y441801D1*
X1053385D1*
X1060570Y444178D1*
X1065323Y451363D1*
X1067755Y463301D1*
Y470486D1*
X1065323Y482424D1*
X1060570Y489609D1*
X1053385Y491986D1*
X1048631D1*
X1065323Y482424D2*
X1036638Y451363D1*
X1085571Y446610D2*
X1083194Y444178D1*
X1085571Y441801D1*
X1088002Y444178D1*
X1085571Y446610D1*
X1103442Y482424D2*
X1108250Y484856D1*
X1115435Y491986D1*
Y441801D1*
X1130874Y475295D2*
Y451363D1*
X1133251Y444233D1*
X1138059Y441801D1*
X1145244D1*
X1149998Y444233D1*
X1157183Y451363D1*
Y475295D2*
Y441801D1*
X1203739Y492041D2*
X1172622D1*
Y441801D1*
Y468110D2*
X1191745D1*
X966014Y1498632D2*
X968391Y1491447D1*
X975576Y1486638D1*
X987514Y1484261D1*
X994699D1*
X1006637Y1486638D1*
X1013822Y1491447D1*
X1016199Y1498632D1*
Y1503385D1*
X1013822Y1510570D1*
X1006637Y1515323D1*
X994699Y1517755D1*
X987514D1*
X975576Y1515323D1*
X968391Y1510570D1*
X966014Y1503385D1*
Y1498632D1*
X975576Y1515323D2*
X1006637Y1486638D1*
X1011390Y1535571D2*
X1013822Y1533194D1*
X1016199Y1535571D1*
X1013822Y1538002D1*
X1011390Y1535571D1*
X975576Y1553442D2*
X973144Y1558250D1*
X966014Y1565435D1*
X1016199D1*
X982705Y1580874D2*
X1006637D1*
X1013767Y1583251D1*
X1016199Y1588059D1*
Y1595244D1*
X1013767Y1599998D1*
X1006637Y1607183D1*
X982705D2*
X1016199D1*
X965959Y1653739D2*
Y1622622D1*
X1016199D1*
X989890D2*
Y1641745D1*
X1173631Y746986D2*
X1166446Y744609D1*
X1161638Y737424D1*
X1159261Y725486D1*
Y718301D1*
X1161638Y706363D1*
X1166446Y699178D1*
X1173631Y696801D1*
X1178385D1*
X1185570Y699178D1*
X1190323Y706363D1*
X1192755Y718301D1*
Y725486D1*
X1190323Y737424D1*
X1185570Y744609D1*
X1178385Y746986D1*
X1173631D1*
X1190323Y737424D2*
X1161638Y706363D1*
X1210571Y701610D2*
X1208194Y699178D1*
X1210571Y696801D1*
X1213002Y699178D1*
X1210571Y701610D1*
X1228442Y737424D2*
X1233250Y739856D1*
X1240435Y746986D1*
Y696801D1*
X1255874Y730295D2*
Y706363D1*
X1258251Y699233D1*
X1263059Y696801D1*
X1270244D1*
X1274998Y699233D1*
X1282183Y706363D1*
Y730295D2*
Y696801D1*
X1328739Y747041D2*
X1297622D1*
Y696801D1*
Y723110D2*
X1316745D1*
X467036Y2171751D2*
Y2121511D1*
X488591D1*
X495776Y2123942D1*
X498153Y2126319D1*
X500530Y2131072D1*
Y2138257D1*
X498153Y2143066D1*
X495776Y2145442D1*
X488591Y2147819D1*
X495776Y2150251D1*
X498153Y2152627D1*
X500530Y2157381D1*
Y2162189D1*
X498153Y2166942D1*
X495776Y2169374D1*
X488591Y2171751D1*
X467036D1*
Y2147819D2*
X488591D1*
X544654Y2155004D2*
Y2121511D1*
Y2147819D2*
X539901Y2152627D1*
X535092Y2155004D1*
X527962D1*
X523154Y2152627D1*
X518401Y2147819D1*
X515969Y2140634D1*
Y2135881D1*
X518401Y2128696D1*
X523154Y2123942D1*
X527962Y2121511D1*
X535092D1*
X539901Y2123942D1*
X544654Y2128696D1*
X567278Y2171751D2*
Y2131072D1*
X569655Y2123942D1*
X574463Y2121511D1*
X579216D1*
X560093Y2155004D2*
X576840D1*
X594655Y2171751D2*
Y2121511D1*
Y2145442D2*
X601841Y2152627D1*
X606649Y2155004D1*
X613834D1*
X618587Y2152627D1*
X620964Y2145442D1*
Y2121511D1*
X1080817Y1635576D2*
X1078441Y1640329D1*
X1073632Y1645137D1*
X1068879Y1647514D1*
X1059317D1*
X1054509Y1645137D1*
X1049756Y1640329D1*
X1047324Y1635576D1*
X1044947Y1628390D1*
Y1616397D1*
X1047324Y1609267D1*
X1049756Y1604459D1*
X1054509Y1599706D1*
X1059317Y1597274D1*
X1068879D1*
X1073632Y1599706D1*
X1078441Y1604459D1*
X1080817Y1609267D1*
X1096257Y1630767D2*
Y1597274D1*
Y1621205D2*
X1103442Y1628390D1*
X1108250Y1630767D1*
X1115380D1*
X1120188Y1628390D1*
X1122565Y1621205D1*
Y1597274D1*
Y1621205D2*
X1129750Y1628390D1*
X1134558Y1630767D1*
X1141688D1*
X1146497Y1628390D1*
X1148928Y1621205D1*
Y1597274D1*
X1193053Y1647514D2*
Y1597274D1*
Y1623582D2*
X1188299Y1628390D1*
X1183491Y1630767D1*
X1176306D1*
X1171553Y1628390D1*
X1166744Y1623582D1*
X1164368Y1616397D1*
Y1611644D1*
X1166744Y1604459D1*
X1171553Y1599706D1*
X1176306Y1597274D1*
X1183491D1*
X1188299Y1599706D1*
X1193053Y1604459D1*
X694163Y476894D2*
X721798D1*
X773107Y490103D2*
X770731Y494856D1*
X765922Y499665D1*
X761169Y502041D1*
X751607D1*
X746799Y499665D1*
X742046Y494856D1*
X739614Y490103D1*
X737237Y482918D1*
Y470925D1*
X739614Y463795D1*
X742046Y458986D1*
X746799Y454233D1*
X751607Y451801D1*
X761169D1*
X765922Y454233D1*
X770731Y458986D1*
X773107Y463795D1*
X788546Y485295D2*
Y451801D1*
Y475733D2*
X795732Y482918D1*
X800540Y485295D1*
X807670D1*
X812478Y482918D1*
X814855Y475733D1*
Y451801D1*
Y475733D2*
X822040Y482918D1*
X826848Y485295D1*
X833978D1*
X838786Y482918D1*
X841218Y475733D1*
Y451801D1*
X885342Y502041D2*
Y451801D1*
Y478110D2*
X880589Y482918D1*
X875781Y485295D1*
X868596D1*
X863843Y482918D1*
X859034Y478110D1*
X856658Y470925D1*
Y466171D1*
X859034Y458986D1*
X863843Y454233D1*
X868596Y451801D1*
X875781D1*
X880589Y454233D1*
X885342Y458986D1*
X922282Y498421D2*
Y455366D1*
X900782Y476866D2*
X943837D1*
X430394Y1717663D2*
X427962Y1722472D1*
X420832Y1729657D1*
X471017D1*
X432770Y1747528D2*
X430394D1*
X425585Y1749904D1*
X423209Y1752281D1*
X420832Y1757090D1*
Y1766651D1*
X423209Y1771404D1*
X425585Y1773781D1*
X430394Y1776213D1*
X435147D1*
X439956Y1773781D1*
X447085Y1769028D1*
X471017Y1745096D1*
Y1778589D1*
X420777Y1794029D2*
X471017D1*
X437524Y1817960D2*
X461455Y1794029D1*
X451894Y1803590D2*
X471017Y1820337D1*
X1082770Y1199783D2*
X1080394D1*
X1075585Y1202159D1*
X1073209Y1204536D1*
X1070832Y1209344D1*
Y1218906D1*
X1073209Y1223659D1*
X1075585Y1226036D1*
X1080394Y1228468D1*
X1085147D1*
X1089956Y1226036D1*
X1097085Y1221283D1*
X1121017Y1197351D1*
Y1230844D1*
X1070832Y1251092D2*
Y1277345D1*
X1089956Y1263030D1*
Y1270215D1*
X1092332Y1274968D1*
X1094709Y1277345D1*
X1101894Y1279777D1*
X1106647D1*
X1113832Y1277345D1*
X1118640Y1272592D1*
X1121017Y1265407D1*
Y1258222D1*
X1118640Y1251092D1*
X1116209Y1248715D1*
X1111455Y1246283D1*
X1116209Y1297593D2*
X1118640Y1295216D1*
X1121017Y1297593D1*
X1118640Y1300024D1*
X1116209Y1297593D1*
X1070832Y1327402D2*
X1073209Y1320272D1*
X1077962Y1317840D1*
X1082770D1*
X1087524Y1320272D1*
X1089955Y1325025D1*
X1092332Y1334587D1*
X1094709Y1341772D1*
X1099517Y1346525D1*
X1104270Y1348902D1*
X1111455D1*
X1116209Y1346525D1*
X1118640Y1344149D1*
X1121017Y1336963D1*
Y1327402D1*
X1118640Y1320272D1*
X1116209Y1317840D1*
X1111455Y1315464D1*
X1104270D1*
X1099517Y1317840D1*
X1094709Y1322649D1*
X1092332Y1329778D1*
X1089955Y1339340D1*
X1087524Y1344149D1*
X1082770Y1346525D1*
X1077962D1*
X1073209Y1344149D1*
X1070832Y1336964D1*
Y1327402D1*
X1070777Y1364341D2*
X1121017D1*
X1087524Y1388273D2*
X1111455Y1364341D1*
X1101894Y1373903D2*
X1121017Y1390649D1*
X450394Y1294403D2*
X447962Y1299211D1*
X440832Y1306396D1*
X491017D1*
X452770Y1324267D2*
X450394D1*
X445585Y1326644D1*
X443209Y1329020D1*
X440832Y1333829D1*
Y1343390D1*
X443209Y1348144D1*
X445585Y1350520D1*
X450394Y1352952D1*
X455147D1*
X459956Y1350520D1*
X467085Y1345767D1*
X491017Y1321835D1*
Y1355329D1*
X440832Y1385138D2*
X443209Y1377953D1*
X450394Y1373144D1*
X462332Y1370768D1*
X469517D1*
X481455Y1373144D1*
X488640Y1377953D1*
X491017Y1385138D1*
Y1389891D1*
X488640Y1397076D1*
X481455Y1401829D1*
X469517Y1404261D1*
X462332D1*
X450394Y1401829D1*
X443209Y1397076D1*
X440832Y1389891D1*
Y1385138D1*
X450394Y1401829D2*
X481455Y1373144D1*
X457524Y1468301D2*
X507764D1*
X464709D2*
X459955Y1473110D1*
X457524Y1477863D1*
Y1485048D1*
X459955Y1489856D1*
X464709Y1494610D1*
X471894Y1497042D1*
X476702D1*
X483832Y1494610D1*
X488640Y1489856D1*
X491017Y1485048D1*
Y1477863D1*
X488640Y1473110D1*
X483832Y1468301D1*
X440777Y1543598D2*
Y1512481D1*
X491017D1*
X464709D2*
Y1531604D1*
X943999Y1360576D2*
X941623Y1365329D1*
X936814Y1370137D1*
X932061Y1372514D1*
X922499D1*
X917691Y1370137D1*
X912938Y1365329D1*
X910506Y1360576D1*
X908129Y1353390D1*
Y1341397D1*
X910506Y1334267D1*
X912938Y1329459D1*
X917691Y1324706D1*
X922499Y1322274D1*
X932061D1*
X936814Y1324706D1*
X941623Y1329459D1*
X943999Y1334267D1*
Y1341397D1*
X932061D1*
X959438Y1355767D2*
Y1322274D1*
Y1346205D2*
X966623Y1353390D1*
X971432Y1355767D1*
X978562D1*
X983370Y1353390D1*
X985747Y1346205D1*
Y1322274D1*
X1029871Y1372514D2*
Y1322274D1*
Y1348582D2*
X1025118Y1353390D1*
X1020309Y1355767D1*
X1013124D1*
X1008371Y1353390D1*
X1003563Y1348582D1*
X1001186Y1341397D1*
Y1336644D1*
X1003563Y1329459D1*
X1008371Y1324706D1*
X1013124Y1322274D1*
X1020309D1*
X1025118Y1324706D1*
X1029871Y1329459D1*
X420832Y815873D2*
X423209Y808688D1*
X430394Y803880D1*
X442332Y801503D1*
X449517D1*
X461455Y803880D1*
X468640Y808688D1*
X471017Y815873D1*
Y820626D1*
X468640Y827811D1*
X461455Y832564D1*
X449517Y834996D1*
X442332D1*
X430394Y832565D1*
X423209Y827811D1*
X420832Y820626D1*
Y815873D1*
X430394Y832565D2*
X461455Y803880D1*
X424397Y920536D2*
X467452D1*
X445952Y899037D2*
Y942091D1*
X430394Y957531D2*
X427962Y962339D1*
X420832Y969524D1*
X471017D1*
X420832Y1013648D2*
Y989772D1*
X442332Y987395D1*
X439955Y989772D1*
X437524Y996957D1*
Y1004087D1*
X439955Y1011272D1*
X444709Y1016080D1*
X451894Y1018457D1*
X456647D1*
X463832Y1016080D1*
X468640Y1011272D1*
X471017Y1004087D1*
Y996957D1*
X468640Y989772D1*
X466208Y987395D1*
X461455Y984963D1*
X445925Y1082497D2*
Y1110132D1*
X430394Y1125571D2*
X427962Y1130379D1*
X420832Y1137564D1*
X471017D1*
X420832Y1181689D2*
Y1157812D1*
X442332Y1155436D1*
X439955Y1157812D1*
X437524Y1164997D1*
Y1172127D1*
X439955Y1179312D1*
X444709Y1184120D1*
X451894Y1186497D1*
X456647D1*
X463832Y1184120D1*
X468640Y1179312D1*
X471017Y1172127D1*
Y1164997D1*
X468640Y1157812D1*
X466208Y1155436D1*
X461455Y1153004D1*
X668999Y1060576D2*
X666623Y1065329D1*
X661814Y1070137D1*
X657061Y1072514D1*
X647499D1*
X642691Y1070137D1*
X637938Y1065329D1*
X635506Y1060576D1*
X633129Y1053390D1*
Y1041397D1*
X635506Y1034267D1*
X637938Y1029459D1*
X642691Y1024706D1*
X647499Y1022274D1*
X657061D1*
X661814Y1024706D1*
X666623Y1029459D1*
X668999Y1034267D1*
Y1041397D1*
X657061D1*
X684438Y1055767D2*
Y1022274D1*
Y1046205D2*
X691623Y1053390D1*
X696432Y1055767D1*
X703562D1*
X708370Y1053390D1*
X710747Y1046205D1*
Y1022274D1*
X754871Y1072514D2*
Y1022274D1*
Y1048582D2*
X750118Y1053390D1*
X745309Y1055767D1*
X738124D1*
X733371Y1053390D1*
X728563Y1048582D1*
X726186Y1041397D1*
Y1036644D1*
X728563Y1029459D1*
X733371Y1024706D1*
X738124Y1022274D1*
X745309D1*
X750118Y1024706D1*
X754871Y1029459D1*
M02*
